<svg id="design" xmlns="http://www.w3.org/2000/svg" xmlns:xlink="http://www.w3.org/1999/xlink" viewBox="0 0 56 56"><defs><style>.cls-1{fill:#70bbf9;}.cls-2{fill:url(#linear-gradient);}.cls-3{fill:none;stroke:#333;stroke-linecap:round;stroke-linejoin:round;stroke-width:2px;}</style><linearGradient id="linear-gradient" x1="25.12" y1="47.59" x2="25.12" y2="37.22" gradientTransform="translate(50.24 84.8) rotate(-180)" gradientUnits="userSpaceOnUse"><stop offset="0.12" stop-color="#70bbf9"/><stop offset="0.21" stop-color="#70bbf9" stop-opacity="0.81"/><stop offset="0.32" stop-color="#70bbf9" stop-opacity="0.56"/><stop offset="0.44" stop-color="#70bbf9" stop-opacity="0.36"/><stop offset="0.55" stop-color="#70bbf9" stop-opacity="0.21"/><stop offset="0.65" stop-color="#70bbf9" stop-opacity="0.09"/><stop offset="0.73" stop-color="#70bbf9" stop-opacity="0.02"/><stop offset="0.8" stop-color="#70bbf9" stop-opacity="0"/></linearGradient></defs><rect class="cls-1" x="27.97" width="28.03" height="17.17" rx="2"/><rect class="cls-2" x="18.78" y="37.22" width="12.67" height="10.37" transform="translate(50.24 84.8) rotate(180)"/><path class="cls-3" d="M8.41,38.37A4.86,4.86,0,0,1,3.8,33.76V23.39c0-3.8,6.37-5.76,10.37-5.76s11.53,2,11.53,5.76V37.22"/><path class="cls-3" d="M14.17,14.17a4.41,4.41,0,0,1-4.6-4.6V7.26a4.41,4.41,0,0,1,4.6-4.61,4.42,4.42,0,0,1,4.61,4.61V9.57A4.41,4.41,0,0,1,14.17,14.17Z"/><line class="cls-3" x1="8.41" y1="54.5" x2="8.41" y2="25.7"/><line class="cls-3" x1="21.09" y1="25.7" x2="21.09" y2="37.22"/><line class="cls-3" x1="21.09" y1="47.59" x2="21.09" y2="54.5"/><line class="cls-3" x1="14.17" y1="37.22" x2="14.17" y2="54.5"/><rect class="cls-3" x="18.78" y="37.22" width="12.67" height="10.37" transform="translate(50.24 84.8) rotate(180)"/><path class="cls-3" d="M42.11,22.68h3.12a2.12,2.12,0,0,1,2.11,2.11V26.9"/><path class="cls-3" d="M37.85,22.68H35.74a2.12,2.12,0,0,0-2.11,2.11V26.9"/><path class="cls-3" d="M42.07,26.9h5.27A2.11,2.11,0,0,1,49.45,29v2.11H31.52V29a2.11,2.11,0,0,1,2.11-2.11h3.16"/><path class="cls-3" d="M43.12,12.14v2.69l2.93,2.93a3.67,3.67,0,0,0-.82,4.92"/><path class="cls-3" d="M35.74,22.68C38,20.58,38,17.41,34.69,15.3V10a7,7,0,0,1,7.38-7.38,7.48,7.48,0,0,1,4.56,1.76L44.88,6.17l3.51,3.51v1.74l-1.76,1.77-1.4-1H42.07A2.1,2.1,0,0,1,40,10V9"/></svg>