<svg id="design" xmlns="http://www.w3.org/2000/svg" xmlns:xlink="http://www.w3.org/1999/xlink" viewBox="0 0 56 56"><defs><style>.cls-1{fill:url(#linear-gradient);}.cls-2{fill:none;stroke:#333;stroke-linecap:round;stroke-linejoin:round;stroke-width:2px;}.cls-3{fill:#31dd83;}.cls-4{fill:#333;}</style><linearGradient id="linear-gradient" x1="27" y1="60.11" x2="27" y2="42.91" gradientUnits="userSpaceOnUse"><stop offset="0.23" stop-color="#31dd83"/><stop offset="0.31" stop-color="#31dd83" stop-opacity="0.81"/><stop offset="0.44" stop-color="#31dd83" stop-opacity="0.52"/><stop offset="0.55" stop-color="#31dd83" stop-opacity="0.3"/><stop offset="0.66" stop-color="#31dd83" stop-opacity="0.14"/><stop offset="0.74" stop-color="#31dd83" stop-opacity="0.04"/><stop offset="0.8" stop-color="#31dd83" stop-opacity="0"/></linearGradient></defs><path class="cls-1" d="M39.17,55H20.91V50.63c0-1-3.45-5.26-4.3-6.59-.52-.82-4.22-9.45-4.22-9.45,0-1.18,3-2.69,4.93,0l2,3a1.86,1.86,0,0,0,2.85.34V19.7a2.44,2.44,0,1,1,4.87,0v8.52h2.43a3.29,3.29,0,0,1,2.44,1.21H34.3a2.56,2.56,0,0,1,2.44,2.44h2.43a2.55,2.55,0,0,1,2.44,2.43V45.76c0,2.46-2.44,4.44-2.44,6.08Z"/><line class="cls-2" x1="5.47" y1="7" x2="27.47" y2="7"/><line class="cls-2" x1="39.87" y1="7" x2="50.53" y2="7"/><path class="cls-3" d="M35.26,0A10,10,0,0,1,37.8.89,7,7,0,0,1,41.31,6a6.09,6.09,0,0,1,0,2.17,7,7,0,0,1-13.65.81l-.21-.8a16.15,16.15,0,0,1,0-2.2,7.49,7.49,0,0,1,1.66-3.53A6.83,6.83,0,0,1,33.26.1.72.72,0,0,0,33.5,0Z"/><line class="cls-2" x1="33.41" y1="7" x2="35.41" y2="7"/><line class="cls-2" x1="50.53" y1="19.12" x2="28" y2="19.12"/><line class="cls-2" x1="16.13" y1="19.12" x2="5.47" y2="19.12"/><path class="cls-3" d="M24.57,16.26a3.09,3.09,0,0,1,.8.11,7.44,7.44,0,0,0-1.14-1.84,6.82,6.82,0,0,0-4.15-2.31.82.82,0,0,1-.24-.1H18.09a9.83,9.83,0,0,0-2.54.89A7,7,0,0,0,12,18.08a6.14,6.14,0,0,0,0,2.18A7,7,0,0,0,20.17,26a6.13,6.13,0,0,0,1-.24V19.7A3.44,3.44,0,0,1,24.57,16.26Z"/><path class="cls-4" d="M31.87,35.3a1,1,0,0,0,1-1V30.43h-1A1,1,0,0,1,31,30a.85.85,0,0,0-.16-.17v4.5A1,1,0,0,0,31.87,35.3Z"/><path class="cls-4" d="M36.74,36.52a1,1,0,0,0,1-1V32.87h-1a1,1,0,0,1-1-1v3.65A1,1,0,0,0,36.74,36.52Z"/><line class="cls-2" x1="31.87" y1="29.43" x2="31.87" y2="34.3"/><line class="cls-2" x1="36.74" y1="31.87" x2="36.74" y2="35.52"/><path class="cls-2" d="M39.17,55H20.91V50.63c0-1-3.45-5.26-4.3-6.59-.52-.82-4.22-9.45-4.22-9.45,0-1.18,3-2.69,4.93,0l2,3a1.86,1.86,0,0,0,2.85.34V19.7a2.44,2.44,0,1,1,4.87,0v8.52h2.43a3.29,3.29,0,0,1,2.44,1.21H34.3a2.56,2.56,0,0,1,2.44,2.44h2.43a2.55,2.55,0,0,1,2.44,2.43V45.76c0,2.46-2.44,4.44-2.44,6.08Z"/></svg>