<?xml version="1.0" encoding="UTF-8" standalone="no"?>
<svg
   id="Layer_1"
   data-name="Layer 1"
   viewBox="0 0 512 512"
   version="1.1"
   sodipodi:docname="Efficient.svg"
   inkscape:version="1.2.2 (732a01da63, 2022-12-09)"
   xmlns:inkscape="http://www.inkscape.org/namespaces/inkscape"
   xmlns:sodipodi="http://sodipodi.sourceforge.net/DTD/sodipodi-0.dtd"
   xmlns="http://www.w3.org/2000/svg"
   xmlns:svg="http://www.w3.org/2000/svg"
   xmlns:rdf="http://www.w3.org/1999/02/22-rdf-syntax-ns#"
   xmlns:cc="http://creativecommons.org/ns#"
   xmlns:dc="http://purl.org/dc/elements/1.1/">
  <defs
     id="defs47209" />
  <sodipodi:namedview
     id="namedview47207"
     pagecolor="#ffffff"
     bordercolor="#000000"
     borderopacity="0.25"
     inkscape:showpageshadow="2"
     inkscape:pageopacity="0.0"
     inkscape:pagecheckerboard="0"
     inkscape:deskcolor="#d1d1d1"
     showgrid="false"
     inkscape:zoom="1.5703125"
     inkscape:cx="236.57711"
     inkscape:cy="256.31841"
     inkscape:window-width="2400"
     inkscape:window-height="1261"
     inkscape:window-x="2391"
     inkscape:window-y="-9"
     inkscape:window-maximized="1"
     inkscape:current-layer="Layer_1" />
  <title
     id="title47194">graphs-stats-flat</title>
  <path
     d="M0,256C0,114.62,114.62,0,256,0S512,114.63,512,256,397.37,512,256,512,0,397.38,0,256Z"
     fill="#ff352e"
     id="path47196"
     style="fill:#1d4999;fill-opacity:1" />
  <path
     d="M341.84,324.43V200a9.48,9.48,0,0,0-9.47-9.5H306.7a9.5,9.5,0,0,0-9.49,9.5V324.43Z"
     fill="#fff"
     id="path47198" />
  <path
     d="M279.33,324.43V211.89a9.49,9.49,0,0,0-9.49-9.51H244.19a9.51,9.51,0,0,0-9.51,9.51V324.43Z"
     fill="#fff"
     id="path47200" />
  <path
     d="M213.86,324.43V164.26a9.52,9.52,0,0,0-9.51-9.51H178.7a9.51,9.51,0,0,0-9.51,9.51V324.43Z"
     fill="#fff"
     id="path47202" />
  <path
     d="M349.89,346.63c0,5.87-4.26,10.62-9.54,10.62H171.65c-5.26,0-9.54-4.75-9.54-10.62v-2.92c0-5.87,4.28-10.62,9.54-10.62h168.7c5.27,0,9.54,4.75,9.54,10.62Z"
     fill="#fff"
     id="path47204" />
  <metadata
     id="metadata48054">
    <rdf:RDF>
      <cc:Work
         rdf:about="">
        <dc:title>graphs-stats-flat</dc:title>
      </cc:Work>
    </rdf:RDF>
  </metadata>
</svg>
