<?xml version="1.0" encoding="utf-8"?>
<!-- Generator: Adobe Illustrator 24.2.1, SVG Export Plug-In . SVG Version: 6.00 Build 0)  -->
<svg version="1.1" id="design" xmlns="http://www.w3.org/2000/svg" xmlns:xlink="http://www.w3.org/1999/xlink" x="0px" y="0px"
	 viewBox="0 0 56 56" style="enable-background:new 0 0 56 56;" xml:space="preserve">
<style type="text/css">
	.st0{fill:#FFD546;}
	.st1{fill:url(#SVGID_1_);}
	.st2{fill:none;stroke:#333333;stroke-width:2;stroke-linecap:round;stroke-linejoin:round;}
</style>
<g>
	<path class="st0" d="M28.8,7.5H53c0.8,0,1.5,0.7,1.5,1.5c0,0.3-0.1,0.6-0.3,0.9L42.1,27.3c-0.5,0.7-1.4,0.9-2.1,0.4
		c-0.2-0.1-0.3-0.2-0.4-0.4L27.6,9.9c-0.5-0.7-0.3-1.6,0.4-2.1C28.2,7.6,28.5,7.5,28.8,7.5z"/>
	
		<linearGradient id="SVGID_1_" gradientUnits="userSpaceOnUse" x1="14.6055" y1="10.5538" x2="14.6055" y2="19.6959" gradientTransform="matrix(1 0 0 -1 0 58)">
		<stop  offset="0" style="stop-color:#B2DEFF"/>
		<stop  offset="0" style="stop-color:#FFD546"/>
		<stop  offset="0.14" style="stop-color:#FFD546;stop-opacity:0.7"/>
		<stop  offset="0.28" style="stop-color:#FFD546;stop-opacity:0.45"/>
		<stop  offset="0.4" style="stop-color:#FFD546;stop-opacity:0.26"/>
		<stop  offset="0.51" style="stop-color:#FFD546;stop-opacity:0.12"/>
		<stop  offset="0.59" style="stop-color:#FFD546;stop-opacity:3.000000e-02"/>
		<stop  offset="0.65" style="stop-color:#FFD546;stop-opacity:0"/>
	</linearGradient>
	<rect x="8.3" y="38.1" class="st1" width="12.5" height="9.6"/>
	<path class="st2" d="M27.7,21.8c0-7.2-5.9-13.1-13.1-13.1c-7.2,0-13.1,5.9-13.1,13.1c0,4.8,2.6,9.2,6.8,11.5v4.8h12.5v-4.8
		C25.1,31,27.7,26.6,27.7,21.8z"/>
	<rect x="8.3" y="38.1" class="st2" width="12.5" height="9.6"/>
	<path class="st2" d="M14.6,52.6c2.7,0,4.9-2.2,4.9-4.9H9.7C9.7,50.4,11.9,52.6,14.6,52.6L14.6,52.6z"/>
	<polygon class="st2" points="40.9,16.8 36,16.8 40.9,23.9 45.8,16.8 	"/>
	<path class="st2" d="M50.5,38.4c-0.5-1.4-1.2-2.7-2.2-3.8l1.6-2.7l-5.2-3l-1.5,2.7c-0.7-0.2-1.5-0.2-2.2-0.2
		c-0.7,0-1.5,0.1-2.2,0.2l-1.5-2.7l-5.2,3l1.5,2.7c-1,1.1-1.8,2.4-2.2,3.8h-3.1v6.1h3.1c0.4,1.4,1.2,2.7,2.2,3.8L32,50.9l5.2,3
		l1.5-2.7c0.7,0.2,1.5,0.2,2.2,0.2c0.7,0,1.5-0.1,2.2-0.2l1.5,2.7l5.2-3l-1.6-2.7c1-1.1,1.8-2.4,2.2-3.8h3.1v-6H50.5z"/>
	<polyline class="st2" points="14.6,8.7 14.6,2.1 40.9,2.1 40.9,16.8 	"/>
	<circle class="st2" cx="40.9" cy="41.4" r="3.9"/>
	<polygon class="st2" points="14.6,20.4 8.9,20.4 14.6,38.1 20.3,20.4 	"/>
</g>
</svg>
