<?xml version="1.0" encoding="UTF-8" standalone="no"?>
<svg
   id="Layer_1"
   data-name="Layer 1"
   viewBox="0 0 512 512"
   version="1.1"
   sodipodi:docname="Security.svg"
   inkscape:version="1.2.2 (732a01da63, 2022-12-09)"
   xmlns:inkscape="http://www.inkscape.org/namespaces/inkscape"
   xmlns:sodipodi="http://sodipodi.sourceforge.net/DTD/sodipodi-0.dtd"
   xmlns="http://www.w3.org/2000/svg"
   xmlns:svg="http://www.w3.org/2000/svg">
  <defs
     id="defs49533" />
  <sodipodi:namedview
     id="namedview49531"
     pagecolor="#ffffff"
     bordercolor="#000000"
     borderopacity="0.25"
     inkscape:showpageshadow="2"
     inkscape:pageopacity="0.0"
     inkscape:pagecheckerboard="0"
     inkscape:deskcolor="#d1d1d1"
     showgrid="false"
     inkscape:zoom="1.5703125"
     inkscape:cx="236.57711"
     inkscape:cy="256.31841"
     inkscape:window-width="2400"
     inkscape:window-height="1261"
     inkscape:window-x="2391"
     inkscape:window-y="-9"
     inkscape:window-maximized="1"
     inkscape:current-layer="Layer_1" />
  <title
     id="title49518">database-shield-flat</title>
  <path
     d="M0,256C0,114.61,114.61,0,256,0S512,114.63,512,256,397.38,512,256,512,0,397.39,0,256Z"
     fill="#00b6eb"
     id="path49520"
     style="fill:#1d4999;fill-opacity:1" />
  <path
     d="M151.73,266.14H261.91V254.55a17.28,17.28,0,0,1,17.26-17.26h46.34V219.8a11.62,11.62,0,0,0-11.59-11.59H151.73a11.62,11.62,0,0,0-11.59,11.59v34.76A11.62,11.62,0,0,0,151.73,266.14Z"
     fill="#fff"
     id="path49522" />
  <rect
     x="140.15"
     y="138.7"
     width="185.36"
     height="57.93"
     rx="11.59"
     ry="11.59"
     fill="#fff"
     id="rect49524" />
  <path
     d="M261.91,322.9V277.72H151.73a11.62,11.62,0,0,0-11.59,11.59v34.76a11.62,11.62,0,0,0,11.59,11.59H264.91A28.24,28.24,0,0,1,261.91,322.9Z"
     fill="#fff"
     id="path49526" />
  <path
     d="M360.27,243h-81.1a11.62,11.62,0,0,0-11.59,11.59V322.9c0,7.53,3.48,13.9,9.27,18.54l42.86,31.86,42.86-31.86c5.79-4.63,9.27-11,9.27-18.54V254.55A11.62,11.62,0,0,0,360.27,243Z"
     fill="#fff"
     id="path49528" />
</svg>
