<?xml version="1.0" encoding="UTF-8" standalone="no"?>
<svg
   width="613.61401"
   height="542.849"
   viewBox="0 0 613.614 542.849"
   version="1.1"
   id="svg566"
   sodipodi:docname="image.svg"
   xmlns:inkscape="http://www.inkscape.org/namespaces/inkscape"
   xmlns:sodipodi="http://sodipodi.sourceforge.net/DTD/sodipodi-0.dtd"
   xmlns="http://www.w3.org/2000/svg"
   xmlns:svg="http://www.w3.org/2000/svg">
  <defs
     id="defs570" />
  <sodipodi:namedview
     id="namedview568"
     pagecolor="#ffffff"
     bordercolor="#000000"
     borderopacity="0.25"
     inkscape:showpageshadow="2"
     inkscape:pageopacity="0.0"
     inkscape:pagecheckerboard="0"
     inkscape:deskcolor="#d1d1d1"
     showgrid="false" />
  <g
     id="g2566">
    <g
       id="freepik--background-complete--inject-64"
       transform="translate(31.818)">
      <rect
         id="Rectangle_80"
         data-name="Rectangle 80"
         width="228.88699"
         height="204.77"
         transform="translate(0.514,76.044)"
         fill="#fafafa"
         x="0"
         y="0" />
      <path
         id="Path_1025"
         data-name="Path 1025"
         d="m 270.161,293.8 v -14.766 c 0,-9.612 -0.079,-23.668 -0.132,-41.561 -0.066,-35.785 -0.158,-86.905 -0.264,-148.442 l 0.514,0.514 L 41.3,89.638 v 0 l 0.607,-0.607 V 293.8 l -0.541,-0.527 165.544,0.264 46.7,0.145 h 12.473 l -12.249,0.066 -46.571,0.145 -165.9,0.264 h -0.541 v -0.541 c 0,-60.165 0,-130.272 -0.066,-204.77 V 88.24 h 0.633 l 228.86,0.092 h 0.527 v 0.514 c -0.105,61.668 -0.2,112.907 -0.264,148.758 0,17.853 -0.105,31.869 -0.132,41.455 v 10.878 a 26.582,26.582 0 0 1 -0.219,3.863 z"
         transform="translate(-40.76,-12.987)"
         fill="#e0e0e0" />
      <path
         id="Path_1026"
         data-name="Path 1026"
         d="m 120.71,116.567 c 0,0.343 -12.052,0.62 -26.9,0.62 -14.848,0 -26.912,-0.277 -26.912,-0.62 0,-0.343 12.002,-0.567 26.914,-0.567 14.912,0 26.898,0.237 26.898,0.567 z"
         transform="translate(-32.433,-4.144)"
         fill="#e0e0e0" />
      <path
         id="Path_1027"
         data-name="Path 1027"
         d="m 216.96,128.25 c 0,0.33 -33.1,0.607 -73.839,0.607 -40.739,0 -73.931,-0.277 -73.931,-0.607 0,-0.33 33.1,-0.62 73.931,-0.62 40.831,0 73.839,0.277 73.839,0.62 z"
         transform="translate(-31.704,-0.44)"
         fill="#e0e0e0" />
      <rect
         id="Rectangle_81"
         data-name="Rectangle 81"
         width="9.6389999"
         height="9.6389999"
         transform="translate(34.862,153.851)"
         fill="#e0e0e0"
         x="0"
         y="0" />
      <rect
         id="Rectangle_82"
         data-name="Rectangle 82"
         width="9.6389999"
         height="9.6389999"
         transform="translate(58.596,153.851)"
         fill="#e0e0e0"
         x="0"
         y="0" />
      <rect
         id="Rectangle_83"
         data-name="Rectangle 83"
         width="9.6389999"
         height="9.6389999"
         transform="translate(82.765,153.416)"
         fill="#e0e0e0"
         x="0"
         y="0" />
      <rect
         id="Rectangle_84"
         data-name="Rectangle 84"
         width="9.6389999"
         height="9.6389999"
         transform="translate(106.064,153.851)"
         fill="#e0e0e0"
         x="0"
         y="0" />
      <rect
         id="Rectangle_85"
         data-name="Rectangle 85"
         width="9.6389999"
         height="9.6389999"
         transform="translate(129.811,153.851)"
         fill="#e0e0e0"
         x="0"
         y="0" />
      <rect
         id="Rectangle_86"
         data-name="Rectangle 86"
         width="9.6389999"
         height="9.6389999"
         transform="translate(153.545,153.851)"
         fill="#e0e0e0"
         x="0"
         y="0" />
      <rect
         id="Rectangle_87"
         data-name="Rectangle 87"
         width="9.6389999"
         height="9.6389999"
         transform="translate(177.279,153.851)"
         fill="#ebebeb"
         x="0"
         y="0" />
      <rect
         id="Rectangle_88"
         data-name="Rectangle 88"
         width="9.6389999"
         height="9.6389999"
         transform="translate(34.862,174.355)"
         fill="#ebebeb"
         x="0"
         y="0" />
      <rect
         id="Rectangle_89"
         data-name="Rectangle 89"
         width="9.6389999"
         height="9.6389999"
         transform="translate(58.596,174.355)"
         fill="#e0e0e0"
         x="0"
         y="0" />
      <rect
         id="Rectangle_90"
         data-name="Rectangle 90"
         width="9.6389999"
         height="9.6389999"
         transform="translate(82.33,174.355)"
         fill="#ebebeb"
         x="0"
         y="0" />
      <rect
         id="Rectangle_91"
         data-name="Rectangle 91"
         width="9.6389999"
         height="9.6389999"
         transform="translate(106.064,174.355)"
         fill="#e0e0e0"
         x="0"
         y="0" />
      <rect
         id="Rectangle_92"
         data-name="Rectangle 92"
         width="9.6389999"
         height="9.6389999"
         transform="translate(129.811,174.355)"
         fill="#e0e0e0"
         x="0"
         y="0" />
      <rect
         id="Rectangle_93"
         data-name="Rectangle 93"
         width="9.6389999"
         height="9.6389999"
         transform="translate(153.98,173.907)"
         fill="#e0e0e0"
         x="0"
         y="0" />
      <rect
         id="Rectangle_94"
         data-name="Rectangle 94"
         width="9.6389999"
         height="9.6389999"
         transform="translate(177.279,174.355)"
         fill="#e0e0e0"
         x="0"
         y="0" />
      <rect
         id="Rectangle_95"
         data-name="Rectangle 95"
         width="9.6389999"
         height="9.6389999"
         transform="translate(34.862,194.845)"
         fill="#e0e0e0"
         x="0"
         y="0" />
      <rect
         id="Rectangle_96"
         data-name="Rectangle 96"
         width="9.6389999"
         height="9.6389999"
         transform="translate(59.031,194.41)"
         fill="#e0e0e0"
         x="0"
         y="0" />
      <rect
         id="Rectangle_97"
         data-name="Rectangle 97"
         width="9.6389999"
         height="9.6389999"
         transform="translate(82.33,194.845)"
         fill="#e0e0e0"
         x="0"
         y="0" />
      <rect
         id="Rectangle_98"
         data-name="Rectangle 98"
         width="9.6389999"
         height="9.6389999"
         transform="translate(106.064,194.845)"
         fill="#ebebeb"
         x="0"
         y="0" />
      <rect
         id="Rectangle_99"
         data-name="Rectangle 99"
         width="9.6389999"
         height="9.6389999"
         transform="translate(129.811,194.845)"
         fill="#e0e0e0"
         x="0"
         y="0" />
      <rect
         id="Rectangle_100"
         data-name="Rectangle 100"
         width="9.6389999"
         height="9.6389999"
         transform="translate(153.545,194.845)"
         fill="#e0e0e0"
         x="0"
         y="0" />
      <rect
         id="Rectangle_101"
         data-name="Rectangle 101"
         width="9.6389999"
         height="9.6389999"
         transform="translate(177.279,194.845)"
         fill="#e0e0e0"
         x="0"
         y="0" />
      <rect
         id="Rectangle_102"
         data-name="Rectangle 102"
         width="9.6389999"
         height="9.6389999"
         transform="translate(34.862,215.348)"
         fill="#e0e0e0"
         x="0"
         y="0" />
      <rect
         id="Rectangle_103"
         data-name="Rectangle 103"
         width="9.6389999"
         height="9.6389999"
         transform="translate(58.596,215.348)"
         fill="#e0e0e0"
         x="0"
         y="0" />
      <rect
         id="Rectangle_104"
         data-name="Rectangle 104"
         width="9.6389999"
         height="9.6389999"
         transform="translate(82.33,215.348)"
         fill="#e0e0e0"
         x="0"
         y="0" />
      <rect
         id="Rectangle_105"
         data-name="Rectangle 105"
         width="9.6389999"
         height="9.6389999"
         transform="translate(106.512,214.913)"
         fill="#e0e0e0"
         x="0"
         y="0" />
      <rect
         id="Rectangle_106"
         data-name="Rectangle 106"
         width="9.6389999"
         height="9.6389999"
         transform="translate(129.811,215.348)"
         fill="#e0e0e0"
         x="0"
         y="0" />
      <rect
         id="Rectangle_107"
         data-name="Rectangle 107"
         width="9.6389999"
         height="9.6389999"
         transform="translate(153.545,215.348)"
         fill="#ebebeb"
         x="0"
         y="0" />
      <rect
         id="Rectangle_108"
         data-name="Rectangle 108"
         width="9.6389999"
         height="9.6389999"
         transform="translate(177.279,215.348)"
         fill="#e0e0e0"
         x="0"
         y="0" />
      <rect
         id="Rectangle_109"
         data-name="Rectangle 109"
         width="9.6389999"
         height="9.6389999"
         transform="translate(34.862,235.852)"
         fill="#e0e0e0"
         x="0"
         y="0" />
      <rect
         id="Rectangle_110"
         data-name="Rectangle 110"
         width="9.6389999"
         height="9.6389999"
         transform="translate(58.596,235.852)"
         fill="#ebebeb"
         x="0"
         y="0" />
      <rect
         id="Rectangle_111"
         data-name="Rectangle 111"
         width="9.6389999"
         height="9.6389999"
         transform="translate(82.33,235.852)"
         fill="#e0e0e0"
         x="0"
         y="0" />
      <rect
         id="Rectangle_112"
         data-name="Rectangle 112"
         width="9.6389999"
         height="9.6389999"
         transform="translate(106.064,235.852)"
         fill="#e0e0e0"
         x="0"
         y="0" />
      <rect
         id="Rectangle_113"
         data-name="Rectangle 113"
         width="9.6389999"
         height="9.6389999"
         transform="translate(129.811,235.852)"
         fill="#e0e0e0"
         x="0"
         y="0" />
      <rect
         id="Rectangle_114"
         data-name="Rectangle 114"
         width="9.6389999"
         height="9.6389999"
         transform="translate(153.98,235.417)"
         fill="#e0e0e0"
         x="0"
         y="0" />
      <rect
         id="Rectangle_115"
         data-name="Rectangle 115"
         width="9.6389999"
         height="9.6389999"
         transform="translate(177.279,235.852)"
         fill="#e0e0e0"
         x="0"
         y="0" />
      <rect
         id="Rectangle_116"
         data-name="Rectangle 116"
         width="14.715"
         height="73.193001"
         transform="matrix(1,-0.005,0.005,1,473.156,27.372)"
         fill="#e0e0e0"
         x="0"
         y="0" />
      <rect
         id="Rectangle_117"
         data-name="Rectangle 117"
         width="38.092999"
         height="40.400002"
         transform="matrix(1,-0.005,0.005,1,345.721,27.693)"
         fill="#ebebeb"
         x="0"
         y="0" />
      <rect
         id="Rectangle_118"
         data-name="Rectangle 118"
         width="38.092999"
         height="40.400002"
         transform="matrix(1,-0.005,0.005,1,383.641,27.475)"
         fill="#f5f5f5"
         x="0"
         y="0" />
      <path
         id="Path_1028"
         data-name="Path 1028"
         d="m 303.066,60.943 q 37.974,0.316 76,-0.356 a 0.409,0.409 0 0 0 0,-0.8 c -25.3,-0.145 -50.685,0 -75.988,0.461 a 0.356,0.356 0 0 0 0,0.7 z"
         transform="translate(42.709,-22.069)"
         fill="#e0e0e0" />
      <rect
         id="Rectangle_119"
         data-name="Rectangle 119"
         width="69.210999"
         height="32.924"
         transform="matrix(1,-0.005,0.005,1,321.992,67.588)"
         fill="#ebebeb"
         x="0"
         y="0" />
      <rect
         id="Rectangle_120"
         data-name="Rectangle 120"
         width="69.210999"
         height="32.924"
         transform="matrix(1,-0.005,0.005,1,390.871,67.216)"
         fill="#f5f5f5"
         x="0"
         y="0" />
      <path
         id="Path_1029"
         data-name="Path 1029"
         d="m 285.07,89.78 c 45.978,0.527 92.114,0 138.078,-0.686 a 0.409,0.409 0 0 0 0,-0.8 C 377.17,88.057 331.034,88.083 285.07,89.085 a 0.356,0.356 0 0 0 0,0.7 z"
         transform="translate(36.972,-13.011)"
         fill="#e0e0e0" />
      <rect
         id="Rectangle_121"
         data-name="Rectangle 121"
         width="268.12601"
         height="11.801"
         transform="translate(296.146,100.543)"
         fill="#e0e0e0"
         x="0"
         y="0" />
      <rect
         id="Rectangle_122"
         data-name="Rectangle 122"
         width="10.878"
         height="40.255001"
         transform="translate(340.04,106.212)"
         fill="#e0e0e0"
         x="0"
         y="0" />
      <rect
         id="Rectangle_123"
         data-name="Rectangle 123"
         width="10.891"
         height="40.255001"
         transform="translate(502.525,106.212)"
         fill="#e0e0e0"
         x="0"
         y="0" />
      <rect
         id="Rectangle_124"
         data-name="Rectangle 124"
         width="14.715"
         height="100.658"
         transform="matrix(1,-0.005,0.005,1,487.513,0.08)"
         fill="#ebebeb"
         x="0"
         y="0" />
      <rect
         id="Rectangle_125"
         data-name="Rectangle 125"
         width="22.85"
         height="81.578003"
         transform="rotate(-0.573,1881.3843,-50251.328)"
         fill="#f5f5f5"
         x="0"
         y="0" />
      <path
         id="Path_1030"
         data-name="Path 1030"
         d="m 444.52,57.416 a 84.387,84.387 0 0 1 -11.432,0.4 84.226,84.226 0 0 1 -11.419,-0.4 c 0,-0.224 5.116,-0.4 11.419,-0.4 6.303,0 11.432,0.175 11.432,0.4 z"
         transform="translate(80.578,-22.932)"
         fill="#e0e0e0" />
      <path
         id="Path_1031"
         data-name="Path 1031"
         d="m 444.52,54.816 a 84.387,84.387 0 0 1 -11.432,0.4 84.227,84.227 0 0 1 -11.419,-0.4 c 0,-0.224 5.116,-0.4 11.419,-0.4 6.303,0 11.432,0.175 11.432,0.4 z"
         transform="translate(80.578,-23.76)"
         fill="#e0e0e0" />
      <path
         id="Path_1032"
         data-name="Path 1032"
         d="m 444.52,98.1 a 165.2,165.2 0 0 1 -22.85,0 c 0,-0.224 5.116,-0.4 11.419,-0.4 6.303,0 11.431,0.119 11.431,0.4 z"
         transform="translate(80.578,-9.974)"
         fill="#e0e0e0" />
      <path
         id="Path_1033"
         data-name="Path 1033"
         d="m 444.52,95.456 a 165.2,165.2 0 0 1 -22.85,0 c 0,-0.224 5.116,-0.4 11.419,-0.4 6.303,0 11.431,0.175 11.431,0.4 z"
         transform="translate(80.578,-10.815)"
         fill="#e0e0e0" />
      <path
         id="Path_1034"
         data-name="Path 1034"
         d="m 430.666,98.571 c -0.211,0 -0.4,-8.228 -0.4,-18.381 0,-10.153 0.185,-18.381 0.4,-18.381 0.215,0 0.4,8.228 0.4,18.381 0,10.153 -0.176,18.381 -0.4,18.381 z"
         transform="translate(83.317,-21.406)"
         fill="#e0e0e0" />
      <rect
         id="Rectangle_126"
         data-name="Rectangle 126"
         width="24.881001"
         height="61.576"
         transform="translate(525.296,38.795)"
         fill="#ebebeb"
         x="0"
         y="0" />
      <path
         id="Path_1035"
         data-name="Path 1035"
         d="m 421.155,45.243 a 4.233,4.233 0 1 1 -4.219,-4.233 4.232,4.232 0 0 1 4.219,4.233 z"
         transform="translate(77.717,-28.032)"
         fill="#e0e0e0" />
      <rect
         id="Rectangle_127"
         data-name="Rectangle 127"
         width="2.6110001"
         height="59.888"
         transform="translate(493.334,28.84)"
         fill="#e0e0e0"
         x="0"
         y="0" />
    </g>
    <path
       id="Path_1036"
       data-name="Path 1036"
       d="m 75.99,410.942 c 6.909,-3.56 15.031,-4.022 22.692,-2.756 4.114,0.686 8.4,1.912 11.208,5.01 2.808,3.098 3.323,8.531 0.105,11.181 -1.912,1.582 -4.575,1.82 -7.054,1.793 -6,-0.066 -12.658,-1.121 -17.444,2.479 -2.743,2.07 -4.562,5.485 -7.819,6.5 -3.257,1.015 -6.817,-0.9 -8.5,-3.784 a 13.186,13.186 0 0 1 -0.963,-9.744 14.873,14.873 0 0 1 7.779,-10.68 z"
       fill="#ff465e"
       style="fill:#1d4999;fill-opacity:1" />
    <path
       id="Path_1037"
       data-name="Path 1037"
       d="m 60.18,380.431 c 4.219,6.026 12.421,4.022 16.231,0.356 3.81,-3.666 5.406,-9.019 6.87,-14.1 3.336,-11.616 6.711,-23.734 4.219,-35.6 a 19.686,19.686 0 0 0 -4.552,-9.674 10.337,10.337 0 0 0 -9.8,-3.27 c -4.14,1.094 -6.7,5.142 -8.557,9.006 a 84.822,84.822 0 0 0 -8.4,36.445 c 0,5.868 0.672,12.025 3.956,16.877"
       fill="#ff465e"
       style="fill:#1d4999;fill-opacity:1" />
    <path
       id="Path_1038"
       data-name="Path 1038"
       d="m 48.59,389.081 c 4.589,-5.446 5.459,-13.37 3.415,-20.187 -2.044,-6.817 -6.593,-12.605 -11.946,-17.339 a 64.358,64.358 0 0 0 -21.4,-12.618 22.68,22.68 0 0 0 -9.625,-1.635 10.1,10.1 0 0 0 -8.083,4.879 c -2.255,4.3 -0.092,9.507 2.242,13.766 a 163.058,163.058 0 0 0 14.056,21.4 c 4.219,5.432 9.045,10.786 15.467,13.185 6.422,2.399 13.093,2.176 16.561,-2.228"
       fill="#ff465e"
       style="fill:#1d4999;fill-opacity:1" />
    <path
       id="Path_1039"
       data-name="Path 1039"
       d="m 59.903,471.332 a 13.66,13.66 0 0 0 0.382,-2.729 c 0.185,-2 0.435,-4.5 0.725,-7.476 a 107.029,107.029 0 0 1 1.675,-10.97 85.838,85.838 0 0 1 3.956,-12.935 47.9,47.9 0 0 1 6.593,-11.709 24.564,24.564 0 0 1 8.36,-6.936 23.3,23.3 0 0 1 7.067,-2.136 13.37,13.37 0 0 0 2.729,-0.4 12.456,12.456 0 0 0 -2.769,0 21.505,21.505 0 0 0 -7.344,1.9 24.71,24.71 0 0 0 -8.808,7 46.888,46.888 0 0 0 -6.843,11.946 79.116,79.116 0 0 0 -3.956,13.186 93.35,93.35 0 0 0 -1.464,11.1 c -0.237,3.178 -0.316,5.749 -0.369,7.529 a 12.17,12.17 0 0 0 0.066,2.624 z"
       fill="#263238" />
    <path
       id="Path_1040"
       data-name="Path 1040"
       d="m 60.415,465.583 a 5.868,5.868 0 0 0 0,-1.319 v -3.639 c 0,-3.151 0,-7.713 0.158,-13.344 0.277,-11.274 1.319,-23.4 3.125,-40.506 1.767,-16.073 4.153,-34.8 6.672,-46.953 0.527,-2.769 1.081,-5.274 1.582,-7.437 0.501,-2.163 0.91,-4.074 1.319,-5.6 0.409,-1.526 0.633,-2.637 0.857,-3.521 a 5.275,5.275 0 0 0 0.224,-1.319 4.721,4.721 0 0 0 -0.448,1.187 c -0.277,0.91 -0.62,2.07 -1.055,3.481 -0.435,1.411 -0.949,3.375 -1.49,5.564 -0.541,2.189 -1.174,4.654 -1.767,7.41 a 416.321,416.321 0 0 0 -7.015,43.512 c -1.872,17.141 -2.716,32.74 -2.8,44.026 0,5.657 0,10.232 0.2,13.383 0.092,1.477 0.171,2.637 0.224,3.626 a 5.407,5.407 0 0 0 0.211,1.45 z"
       fill="#263238" />
    <path
       id="Path_1041"
       data-name="Path 1041"
       d="m 60.484,435.495 a 23.931,23.931 0 0 0 0,-3.8 103.35,103.35 0 0 0 -1.16,-10.285 134.822,134.822 0 0 0 -3.336,-14.979 122.464,122.464 0 0 0 -6.3,-17.682 94.462,94.462 0 0 0 -18.463,-28.654 48.369,48.369 0 0 0 -4.325,-4.022 c -0.672,-0.554 -1.253,-1.121 -1.859,-1.556 l -1.675,-1.16 a 23.737,23.737 0 0 0 -3.1,-2.1 c -0.185,0.237 4.523,3.02 10.469,9.335 a 99.643,99.643 0 0 1 17.922,28.555 141.222,141.222 0 0 1 6.3,17.563 151.449,151.449 0 0 1 3.547,14.834 c 0.817,4.285 1.239,7.766 1.516,10.192 a 26.923,26.923 0 0 0 0.461,3.758 z"
       fill="#263238" />
    <path
       id="Path_1042"
       data-name="Path 1042"
       d="m 31.41,488.579 3.006,41.31 h 53.072 l 3.019,-41.31 z"
       fill="#263238" />
    <rect
       id="Rectangle_128"
       data-name="Rectangle 128"
       width="70.555"
       height="16.284"
       fill="#263238"
       x="26.281"
       y="472.29401" />
    <path
       id="Path_1043"
       data-name="Path 1043"
       d="m 26.281,528.306 v 4.509 h 69.4 v -4.509 z"
       fill="#455a64" />
    <path
       id="Path_1044"
       data-name="Path 1044"
       d="m 32.847,540.767 -3.257,-7.951 h 63.554 l -3.8,7.951 z"
       fill="#455a64" />
    <path
       id="Path_1045"
       data-name="Path 1045"
       d="m 89.518,502.151 a 1.61,1.61 0 0 1 -0.251,0.369 c -0.211,0.29 -0.461,0.633 -0.791,1.055 l -3.085,3.956 -0.145,0.185 -0.132,-0.185 -7.595,-10.548 h 0.435 l -7.478,10.543 -0.237,0.33 -0.264,-0.3 -8.859,-10.552 h 0.514 c -0.158,0.185 -0.33,0.4 -0.488,0.607 l -7.911,9.94 -0.264,0.33 -0.237,-0.343 -7.489,-10.547 h 0.435 c -3.679,4.206 -6.817,7.766 -9.23,10.548 l -0.158,0.185 -0.119,-0.211 c -1.226,-2.031 -2.189,-3.666 -2.888,-4.839 -0.3,-0.527 -0.554,-0.949 -0.738,-1.319 a 1.858,1.858 0 0 1 -0.237,-0.461 5.136,5.136 0 0 1 0.316,0.409 l 0.817,1.239 3.033,4.76 h -0.29 l 9.058,-10.627 0.237,-0.264 0.2,0.29 7.554,10.55 h -0.527 l 7.911,-9.955 0.488,-0.607 0.264,-0.316 0.251,0.3 c 3.112,3.705 6.092,7.278 8.847,10.548 h -0.5 l 7.555,-10.548 0.224,-0.3 0.211,0.3 7.437,10.627 h -0.264 l 3.217,-3.837 0.857,-1 q 0.303,-0.412 0.316,-0.312 z"
       fill="#e0e0e0" />
    <path
       id="Path_1046"
       data-name="Path 1046"
       d="m 91.246,488.302 c 0,0.185 -13.3,0.33 -29.694,0.33 -16.394,0 -29.707,-0.145 -29.707,-0.33 0,-0.185 13.291,-0.33 29.707,-0.33 16.416,0 29.694,0.15 29.694,0.33 z"
       fill="#455a64" />
    <path
       id="Path_1047"
       data-name="Path 1047"
       d="m 93.922,533.264 c 0,0.185 -14.5,0.33 -32.278,0.33 -17.778,0 -32.278,-0.145 -32.278,-0.33 0,-0.185 14.5,-0.33 32.278,-0.33 17.778,0 32.278,0.15 32.278,0.33 z"
       fill="#263238" />
    <g
       id="freepik--Chair--inject-64"
       transform="translate(436.928,366.481)">
      <path
         id="Path_1048"
         data-name="Path 1048"
         d="m 367.91,309.11 h 123.324 a 19.95,19.95 0 0 1 19.95,19.95 V 484.147 H 348 V 329.06 a 19.95,19.95 0 0 1 19.91,-19.95 z"
         transform="translate(-348,-309.11)"
         fill="#455a64" />
      <path
         id="Path_1049"
         data-name="Path 1049"
         d="m 461.423,309.79 c 0.2,0 0.343,38.963 0.343,87.024 0,48.061 -0.145,87.024 -0.343,87.024 -0.198,0 -0.343,-38.963 -0.343,-87.024 0,-48.061 0.158,-87.024 0.343,-87.024 z"
         transform="translate(-311.979,-308.893)"
         fill="#263238" />
    </g>
    <path
       id="Path_1050"
       data-name="Path 1050"
       d="m 505.968,176.466 a 138.528,138.528 0 0 1 24.816,72.968 c 0.765,17.537 -1.6,36.22 6.725,51.674 11.946,22.178 37.776,21.426 45.688,45.332 3.441,10.4 -2.9,33.28 -4.615,44.105 -1.938,12.289 5.577,22.613 3.639,34.915 -1.78,11.274 -10.219,19.317 -20.345,24.565 -9.019,4.668 -17.352,4.8 -26.727,0.91 -17.879,-7.4 -32.753,-15.2 -45.477,-29.76 -17.879,-20.437 -23.286,-48.786 -26.371,-75.724 a 664.375,664.375 0 0 1 4.048,-178.993"
       fill="#263238" />
    <path
       id="Path_1051"
       data-name="Path 1051"
       d="m 544.192,453.453 a 4.738,4.738 0 0 1 0.567,-0.145 c 0.382,-0.092 0.962,-0.185 1.7,-0.409 a 29.008,29.008 0 0 0 14.319,-9.006 16.89,16.89 0 0 0 3.191,-5.657 31.033,31.033 0 0 0 1.121,-7.239 71.321,71.321 0 0 0 -1.714,-16.8 c -1.147,-5.986 -2.637,-12.368 -3.085,-19.29 a 39.951,39.951 0 0 1 0.752,-10.548 67.63,67.63 0 0 1 3.349,-10.548 113.049,113.049 0 0 0 3.771,-10.72 27.348,27.348 0 0 0 0.923,-11.471 25.937,25.937 0 0 0 -4.285,-10.654 48.886,48.886 0 0 0 -7.476,-8.465 c -5.446,-5.09 -11.34,-9.23 -16.376,-14 a 92.759,92.759 0 0 1 -21.335,-29.458 90.276,90.276 0 0 1 -4.9,-13.186 c -0.633,-1.965 -1,-3.863 -1.45,-5.577 -0.45,-1.714 -0.646,-3.323 -0.936,-4.747 -0.409,-2.888 -0.725,-5.116 -0.8,-6.593 0,-0.738 -0.105,-1.319 -0.132,-1.74 a 3.193,3.193 0 0 1 0,-0.593 2.951,2.951 0 0 0 0.092,0.593 c 0.092,0.4 0.119,0.989 0.211,1.727 0.119,1.516 0.475,3.745 0.923,6.593 0.3,1.424 0.633,3.006 0.989,4.734 a 47.6,47.6 0 0 0 1.5,5.538 91.942,91.942 0 0 0 4.971,13.054 93.2,93.2 0 0 0 21.321,29.193 c 5.01,4.668 10.918,8.847 16.416,13.963 a 49.907,49.907 0 0 1 7.582,8.584 26.583,26.583 0 0 1 4.391,10.944 27.953,27.953 0 0 1 -0.936,11.748 c -1.028,3.745 -2.466,7.292 -3.8,10.773 a 68.725,68.725 0 0 0 -3.349,10.417 39.256,39.256 0 0 0 -0.752,10.4 c 0.356,6.83 1.886,13.185 3.02,19.211 a 71.835,71.835 0 0 1 1.635,16.93 32.382,32.382 0 0 1 -1.187,7.357 17.84,17.84 0 0 1 -3.31,5.762 27.32,27.32 0 0 1 -8.333,6.527 26.692,26.692 0 0 1 -6.266,2.372 15.418,15.418 0 0 1 -2.321,0.422 z"
       fill="#455a64" />
    <path
       id="Path_1052"
       data-name="Path 1052"
       d="m 298.692,500.564 63.29,-30.05 c 0,0 24.644,-119.658 29.312,-128.633 4.668,-8.975 24.129,-16.746 24.129,-16.746 l -3.257,162.023 -5.8,37.407 -89.239,8.452 z"
       fill="#ff465e"
       style="fill:#1d4999;fill-opacity:1" />
    <path
       id="Path_1053"
       data-name="Path 1053"
       d="m 244.693,528.913 c -0.356,0 -2.11,1.081 -0.646,3.863 1.464,2.782 12.2,11.972 15.348,8.768 3.148,-3.204 -1.661,-7.107 -1.661,-7.107 z"
       fill="#ffbe9d" />
    <path
       id="Path_1054"
       data-name="Path 1054"
       d="m 258.186,534.556 c 0,0 12.948,1.635 17.919,3.534 5.419,2.057 12.012,0.646 16.442,-2.347 a 46.8,46.8 0 0 0 7.015,-5.722 l 16.508,-0.264 a 19.778,19.778 0 0 0 3.217,-20.451 22.193,22.193 0 0 0 -3.771,-6.448 c -1.965,-2.123 -5.063,-3.837 -10.417,-4.76 l -19.607,4.233 c 0,0 -30.327,-2.176 -35.785,0.382 0,0 -6.791,4.022 -8.887,5.709 -0.791,0.646 -3.2,8.373 1.74,12.394 0,0 -4.3,3.415 -1.965,6.487 l 1.108,1.319 c 0,0 -2.888,3.745 -1.4,5.38 1.488,1.635 14.5,9.23 19.132,7.437 4.632,-1.793 0.8,-6.131 -1.253,-6.922"
       fill="#ffbe9d" />
    <path
       id="Path_1055"
       data-name="Path 1055"
       d="m 245.818,514.132 a 14.272,14.272 0 0 1 1.609,0.58 c 1.015,0.382 2.505,0.936 4.378,1.53 0.923,0.3 1.951,0.607 3.072,0.9 1.121,0.293 2.321,0.541 3.573,0.949 a 7.635,7.635 0 0 1 3.56,2.149 4.364,4.364 0 0 1 0.949,4.338 3.4,3.4 0 0 1 -1.6,1.727 6.2,6.2 0 0 1 -2.162,0.606 18.294,18.294 0 0 1 -4.127,-0.224 36.92,36.92 0 0 1 -6.7,-1.74 c -1.859,-0.659 -3.323,-1.319 -4.338,-1.714 a 8.613,8.613 0 0 1 -1.543,-0.738 13.881,13.881 0 0 1 1.622,0.541 c 1.028,0.369 2.518,0.936 4.378,1.543 a 39.552,39.552 0 0 0 6.593,1.622 18.226,18.226 0 0 0 3.956,0.185 5.526,5.526 0 0 0 1.965,-0.554 2.848,2.848 0 0 0 1.319,-1.45 3.863,3.863 0 0 0 -0.765,-3.771 7.212,7.212 0 0 0 -3.31,-2.017 c -1.213,-0.409 -2.426,-0.672 -3.534,-0.989 -1.108,-0.317 -2.149,-0.646 -3.072,-0.963 -1.872,-0.646 -3.336,-1.319 -4.338,-1.7 a 9.008,9.008 0 0 1 -1.49,-0.8 z"
       fill="#eb996e" />
    <path
       id="Path_1056"
       data-name="Path 1056"
       d="m 246.979,504.783 a 11.115,11.115 0 0 1 1.6,0.58 c 1.028,0.4 2.505,0.963 4.351,1.569 1.846,0.606 4.074,1.319 6.593,1.885 a 9.1,9.1 0 0 1 3.837,1.556 3.2,3.2 0 0 1 1.121,1.991 4.1,4.1 0 0 1 -0.33,2.307 5.525,5.525 0 0 1 -3.389,2.874 8.9,8.9 0 0 1 -4.127,0.33 39.66,39.66 0 0 1 -6.593,-1.925 l -4.364,-1.529 a 12.19,12.19 0 0 1 -1.582,-0.62 10.076,10.076 0 0 1 1.648,0.422 l 4.417,1.319 a 44.843,44.843 0 0 0 6.593,1.793 8.558,8.558 0 0 0 3.89,-0.343 5.05,5.05 0 0 0 3.072,-2.637 3.072,3.072 0 0 0 -0.646,-3.679 8.767,8.767 0 0 0 -3.613,-1.464 64.092,64.092 0 0 1 -6.593,-2 c -1.846,-0.686 -3.3,-1.319 -4.3,-1.74 a 10.639,10.639 0 0 1 -1.582,-0.686 z"
       fill="#eb996e" />
    <path
       id="Path_1057"
       data-name="Path 1057"
       d="m 253.215,507.42 a 16.414,16.414 0 0 1 -0.593,-2.637 14.5,14.5 0 0 1 -0.646,-2.637 4.654,4.654 0 0 1 1.174,2.466 4.378,4.378 0 0 1 0.066,2.809 z"
       fill="#eb996e" />
    <path
       id="Path_1058"
       data-name="Path 1058"
       d="m 298.876,507.842 -11.537,-4.378 c 0,0 -32.027,-14.952 -32.568,-14.135 -0.541,0.817 -2.281,0.712 -1.9,4.615 0.381,3.903 19.04,11.788 19.633,13.185 0.593,1.397 -0.4,8.2 6.5,13.093 6.9,4.893 11.867,5.01 11.867,5.01"
       fill="#ffbe9d" />
    <path
       id="Path_1059"
       data-name="Path 1059"
       d="m 290.873,525.115 h -0.3 l -0.791,-0.079 a 19.183,19.183 0 0 1 -2.993,-0.725 29.286,29.286 0 0 1 -9.784,-5.63 13.792,13.792 0 0 1 -3.956,-6.738 30.614,30.614 0 0 1 -0.686,-4.312 2.4,2.4 0 0 0 -0.119,-0.488 0.95,0.95 0 0 0 -0.3,-0.316 10.436,10.436 0 0 0 -0.936,-0.607 c -0.646,-0.382 -1.319,-0.752 -2.031,-1.121 -2.769,-1.49 -5.736,-2.98 -8.716,-4.694 a 52,52 0 0 1 -4.443,-2.808 16.2,16.2 0 0 1 -2.083,-1.741 5.275,5.275 0 0 1 -0.883,-1.108 2.163,2.163 0 0 1 -0.264,-0.725 3.26,3.26 0 0 1 0,-0.712 5.05,5.05 0 0 1 0.488,-2.782 3.39,3.39 0 0 1 1.015,-1.015 2.255,2.255 0 0 0 0.448,-0.382 l 0.105,-0.119 a 0.33,0.33 0 0 1 0.224,-0.066 0.994,0.994 0 0 1 0.224,0 l 0.356,0.092 c 1.727,0.527 3.323,1.226 4.918,1.885 q 4.747,1.978 9.058,3.956 c 5.762,2.637 10.9,4.984 15.229,7.015 1.081,0.488 2.1,1 3.072,1.424 l 2.822,1.108 4.523,1.793 2.848,1.147 0.725,0.316 a 0.273,0.273 0 0 1 0.251,0.119 c 0,0.013 -0.092,0 -0.264,-0.079 l -0.752,-0.251 -2.888,-1.068 -4.562,-1.622 -2.848,-1.068 c -1,-0.409 -2.017,-0.91 -3.1,-1.4 l -15.269,-6.9 q -4.331,-1.978 -9.072,-3.956 c -1.582,-0.646 -3.191,-1.319 -4.852,-1.859 l -0.29,-0.066 h -0.112 v -0.132 0 c 0.369,0.237 0.092,0.079 0.171,0.132 v 0 a 2.413,2.413 0 0 1 -0.554,0.5 2.7,2.7 0 0 0 -0.87,0.857 4.588,4.588 0 0 0 -0.422,2.492 2.466,2.466 0 0 0 0.277,1.187 5.077,5.077 0 0 0 0.791,1 15.452,15.452 0 0 0 2.017,1.675 c 1.424,1.028 2.914,1.925 4.391,2.782 2.967,1.714 5.907,3.217 8.689,4.707 0.7,0.382 1.319,0.752 2.044,1.16 a 11.385,11.385 0 0 1 0.989,0.633 1.319,1.319 0 0 1 0.448,0.514 2.639,2.639 0 0 1 0.132,0.593 34.188,34.188 0 0 0 0.646,4.272 13.555,13.555 0 0 0 3.771,6.593 29.985,29.985 0 0 0 9.586,5.709 21.187,21.187 0 0 0 2.94,0.8 c 0.343,0.079 0.607,0.105 0.791,0.132 z"
       fill="#eb996e" />
    <path
       id="Path_1060"
       data-name="Path 1060"
       d="m 255.549,526.619 a 3.955,3.955 0 0 1 1.226,0.356 12.407,12.407 0 0 1 3.019,1.74 11.067,11.067 0 0 1 1.74,1.7 3.6,3.6 0 0 1 0.936,2.637 2.98,2.98 0 0 1 -2.136,2.307 5.7,5.7 0 0 1 -3.349,-0.105 61.379,61.379 0 0 1 -10.627,-4.259 31.846,31.846 0 0 1 -2.98,-1.767 5.092,5.092 0 0 1 -1.015,-0.765 6.228,6.228 0 0 1 1.121,0.58 c 0.712,0.409 1.741,0.976 3.046,1.609 a 74.441,74.441 0 0 0 10.548,4.088 5.274,5.274 0 0 0 3.059,0.119 2.505,2.505 0 0 0 1.806,-1.872 3.231,3.231 0 0 0 -0.791,-2.347 10.983,10.983 0 0 0 -1.635,-1.674 18.311,18.311 0 0 0 -3.968,-2.347 z"
       fill="#eb996e" />
    <g
       id="Group_5729"
       data-name="Group 5729"
       transform="translate(374.69,409.637)"
       opacity="0.3">
      <path
         id="Path_1061"
         data-name="Path 1061"
         d="m 332.024,456.765 c -10.364,-34.955 -19.5,-79.97 -29.865,-114.925 -3.8,32.265 0.949,74.867 6.883,106.8 0.7,3.745 1.015,7.41 3.956,9.876 l 19.027,-1.754"
         transform="translate(-300.798,-341.84)" />
    </g>
    <path
       id="Path_1062"
       data-name="Path 1062"
       d="m 388.947,500.564 c -0.145,0 -0.58,-2.281 -1.991,-5.775 a 40.99,40.99 0 0 0 -2.972,-5.881 44.61,44.61 0 0 0 -4.879,-6.408 43.434,43.434 0 0 0 -6.039,-5.34 39.287,39.287 0 0 0 -5.643,-3.4 c -3.375,-1.661 -5.643,-2.268 -5.6,-2.4 a 7.091,7.091 0 0 1 1.609,0.382 13.393,13.393 0 0 1 1.833,0.607 24.031,24.031 0 0 1 2.373,0.976 36.922,36.922 0 0 1 5.8,3.323 42.194,42.194 0 0 1 6.184,5.38 42.658,42.658 0 0 1 4.9,6.593 37.713,37.713 0 0 1 2.888,6.026 c 0.356,0.883 0.567,1.714 0.791,2.439 a 13.563,13.563 0 0 1 0.475,1.886 8.427,8.427 0 0 1 0.264,1.6 z"
       fill="#263238" />
    <path
       id="Path_1063"
       data-name="Path 1063"
       d="m 408.703,323.496 c 0,0 -33.14,74.037 -33.14,87.668 0,13.631 24.828,108.029 24.828,108.029 -0.237,3.758 -1.2,22.574 -1.2,22.574 l 139.225,0.488 v 0 l 2.123,-29.931 -10.865,-28.52 10.852,-80.629 c 0,0 7.3,-46.808 7.911,-59.9 0.817,-16.376 -54.667,-35.363 -53.151,-37.631 l -9.573,-12.869 -54.865,44.554 -10.845,-31.33 -13,12.276 z"
       fill="#ff465e"
       style="fill:#1d4999;fill-opacity:1" />
    <path
       id="Path_1064"
       data-name="Path 1064"
       d="m 499.876,343.195 c -15.071,25.487 -42.642,71.927 -42.642,71.927 l -49.419,56.355 c 0,0 -3.23,28.626 3.23,37.407 6.46,8.781 17.555,14.781 17.555,14.781 0,0 13.04,0 29.615,-13.858 16.575,-13.858 62.285,-71.123 62.285,-71.123 l 15.7,-18.948 c 0,0 18.723,-45.991 15.229,-69.4 -1.319,-9.032 -5.2,-12.777 -10.311,-16.917 -12.88,-10.371 -32.818,-4.477 -41.242,9.776 z"
       fill="#ff465e"
       style="fill:#1d4999;fill-opacity:1" />
    <path
       id="Path_1065"
       data-name="Path 1065"
       d="m 542.017,403.783 a 4.068,4.068 0 0 1 -0.237,0.527 c -0.171,0.369 -0.422,0.857 -0.725,1.5 -0.659,1.319 -1.661,3.23 -3.033,5.657 -2.729,4.865 -6.975,11.735 -12.513,20.029 -2.782,4.14 -5.881,8.636 -9.3,13.41 -3.419,4.774 -7.292,9.691 -10.482,15.44 -3.19,5.749 -6.092,12.025 -9.586,18.3 a 115.615,115.615 0 0 1 -12.566,18.341 73.5,73.5 0 0 1 -16.64,14.715 52.4,52.4 0 0 1 -19.277,7.463 43.209,43.209 0 0 1 -18.671,-0.791 35.376,35.376 0 0 1 -7.911,-3.2 36.119,36.119 0 0 1 -6.514,-4.4 29.548,29.548 0 0 1 -4.905,-5.182 29.14,29.14 0 0 1 -3.244,-5.485 34.7,34.7 0 0 1 -2.637,-9.81 45.335,45.335 0 0 1 -0.224,-6.421 c 0,-0.712 0.079,-1.318 0.105,-1.674 a 3.95,3.95 0 0 1 0,-0.567 3.772,3.772 0 0 1 0,0.567 c 0,0.409 0,0.963 0,1.675 a 48.792,48.792 0 0 0 0.343,6.382 35.047,35.047 0 0 0 2.743,9.691 29.467,29.467 0 0 0 3.244,5.38 28.883,28.883 0 0 0 4.879,5.076 35.676,35.676 0 0 0 6.448,4.312 35.264,35.264 0 0 0 7.793,3.125 42.92,42.92 0 0 0 18.46,0.712 51.871,51.871 0 0 0 19.013,-7.41 73.113,73.113 0 0 0 16.495,-14.6 114.409,114.409 0 0 0 12.487,-18.222 c 3.494,-6.237 6.316,-12.566 9.625,-18.288 a 171.55,171.55 0 0 1 10.548,-15.467 c 3.428,-4.747 6.593,-9.23 9.348,-13.344 5.591,-8.241 9.889,-15.071 12.684,-19.884 1.411,-2.413 2.452,-4.3 3.138,-5.591 l 0.8,-1.477 a 2.548,2.548 0 0 1 0.3,-0.488 z"
       fill="#263238" />
    <path
       id="Path_1066"
       data-name="Path 1066"
       d="m 405.284,468.959 c 0,0.092 -0.7,0.527 -1.609,1.543 a 7.911,7.911 0 0 0 -0.9,9.7 18.613,18.613 0 0 0 1.319,1.806 c 0,0.079 -0.831,-0.369 -1.7,-1.53 a 7.779,7.779 0 0 1 0.963,-10.324 3.956,3.956 0 0 1 1.925,-1.2 z"
       fill="#263238" />
    <path
       id="Path_1067"
       data-name="Path 1067"
       d="m 414.421,483.91 a 3.95,3.95 0 0 1 0.778,0.185 l 0.923,0.251 1.319,0.237 a 18.367,18.367 0 0 0 8.149,-0.765 29.838,29.838 0 0 0 10.548,-6.171 79.434,79.434 0 0 0 9.823,-11.405 68.947,68.947 0 0 1 10.14,-11.326 c 1.793,-1.5 3.547,-2.835 5.01,-4.272 a 14.042,14.042 0 0 0 3.3,-4.549 8.294,8.294 0 0 0 -0.752,-7.779 6.118,6.118 0 0 0 -2.387,-1.78 4.048,4.048 0 0 1 0.765,0.224 5.05,5.05 0 0 1 1.833,1.4 8.518,8.518 0 0 1 1,8.122 14.661,14.661 0 0 1 -3.349,4.773 c -1.49,1.477 -3.257,2.848 -5.01,4.351 a 70.412,70.412 0 0 0 -9.995,11.26 77.864,77.864 0 0 1 -9.968,11.471 29.84,29.84 0 0 1 -10.759,6.144 17.921,17.921 0 0 1 -8.346,0.567 l -1.318,-0.3 c -0.369,-0.105 -0.672,-0.237 -0.91,-0.316 a 3.572,3.572 0 0 1 -0.791,-0.317 z"
       fill="#263238" />
    <path
       id="Path_1068"
       data-name="Path 1068"
       d="m 506.587,335.363 a 7.141,7.141 0 0 1 -0.554,0.791 c -0.435,0.554 -0.989,1.319 -1.688,2.2 -1.5,1.872 -3.573,4.668 -6.1,8.149 a 266.7,266.7 0 0 0 -17.576,28.573 c -6.224,11.551 -11.366,22.27 -15.308,29.918 -1.951,3.837 -3.56,6.922 -4.734,9.032 l -1.279,2.413 a 4.84,4.84 0 0 1 -0.514,0.818 5.121,5.121 0 0 1 0.382,-0.883 l 1.239,-2.492 4.523,-9.111 c 3.824,-7.714 8.913,-18.46 15.137,-30.036 a 239.97,239.97 0 0 1 17.8,-28.533 c 2.637,-3.441 4.707,-6.21 6.276,-8.03 l 1.793,-2.123 a 4.191,4.191 0 0 1 0.607,-0.686 z"
       fill="#263238" />
    <g
       id="Group_5730"
       data-name="Group 5730"
       transform="translate(403.648,472.294)"
       opacity="0.3">
      <path
         id="Path_1069"
         data-name="Path 1069"
         d="m 322.813,398.7 c 6.421,3.481 13.489,3.112 20.662,1.714 a 32.067,32.067 0 0 0 18.46,-11.049 32.028,32.028 0 0 1 -8.531,16.851 c -4.562,4.47 -11.181,7.054 -17.458,5.907 -6.277,-1.147 -12.632,-7.054 -13.185,-13.423"
         transform="translate(-322.76,-389.36)" />
    </g>
    <g
       id="Group_5731"
       data-name="Group 5731"
       transform="translate(458.808,408.055)"
       opacity="0.3">
      <path
         id="Path_1070"
         data-name="Path 1070"
         d="m 370.272,376.162 a 28.336,28.336 0 0 1 3.956,21.255 c 5.446,-8.333 6.725,-18.882 5.274,-28.731 -1.451,-9.849 -5.472,-19.145 -9.929,-28.045 0,0 -4.905,8.307 -4.958,9.23 -0.237,4.8 1.53,13.818 2.452,18.526 a 10.3,10.3 0 0 1 2.993,9.309"
         transform="translate(-364.594,-340.64)" />
    </g>
    <g
       id="Group_5732"
       data-name="Group 5732"
       transform="translate(425.483,410.507)"
       opacity="0.3">
      <path
         id="Path_1071"
         data-name="Path 1071"
         d="m 339.32,448.116 c 13.106,10.219 32.555,10.693 46.888,2.307 13.805,-8.083 22.31,-22.639 30.195,-36.55 12.223,-21.545 27.122,-48.193 35.851,-71.373 0,0 -24.459,33.372 -31.83,47.758 a 237.408,237.408 0 0 1 -16.693,28.059 71.94,71.94 0 0 1 -63.131,30.761"
         transform="translate(-339.32,-342.5)" />
    </g>
    <path
       id="Path_1072"
       data-name="Path 1072"
       d="m 399.192,541.703 a 1.317,1.317 0 0 1 0,-0.409 v -1.2 c 0,-1.121 0.092,-2.637 0.171,-4.575 0.185,-3.956 0.435,-9.625 0.752,-16.39 v 0.158 c -2.36,-7.911 -5.129,-17.51 -8,-27.874 -3.8,-13.739 -7,-26.239 -9.164,-35.324 -1.068,-4.536 -1.912,-8.228 -2.439,-10.786 -0.251,-1.226 -0.448,-2.215 -0.593,-2.94 a 8.8,8.8 0 0 1 -0.171,-1.042 5.389,5.389 0 0 1 0.3,1 l 0.725,2.927 c 0.646,2.637 1.543,6.25 2.637,10.72 2.281,9.058 5.564,21.532 9.362,35.258 2.861,10.364 5.591,19.963 7.911,27.887 v 0.092 c -0.409,6.764 -0.752,12.394 -1,16.4 -0.132,1.912 -0.237,3.441 -0.316,4.562 a 11.652,11.652 0 0 1 -0.105,1.187 1.384,1.384 0 0 1 -0.066,0.343 z"
       fill="#263238" />
    <path
       id="Path_1073"
       data-name="Path 1073"
       d="m 538.456,332.661 c 0,0.105 -1.424,-0.4 -3.705,-0.963 a 44.7,44.7 0 0 0 -9.085,-1.319 43.748,43.748 0 0 0 -9.151,0.712 c -2.321,0.435 -3.731,0.831 -3.758,0.725 a 3.4,3.4 0 0 1 0.949,-0.422 27.2,27.2 0 0 1 2.7,-0.778 35.891,35.891 0 0 1 9.23,-0.923 36.426,36.426 0 0 1 9.23,1.477 22.423,22.423 0 0 1 2.637,0.949 c 0.663,0.331 0.953,0.489 0.953,0.542 z"
       fill="#263238" />
    <path
       id="Path_1074"
       data-name="Path 1074"
       d="m 494.374,308.32 a 3.877,3.877 0 0 1 -0.356,0.686 l -1.121,1.886 c -0.989,1.635 -2.452,3.956 -4.312,6.843 -3.732,5.709 -9.072,13.5 -15.387,21.782 -5.076,6.685 -9.995,12.684 -14.016,17.378 l -0.29,0.33 -0.171,-0.4 c -1.925,-4.193 -3.507,-7.674 -4.654,-10.192 -0.514,-1.16 -0.923,-2.11 -1.253,-2.835 a 5.27,5.27 0 0 1 -0.382,-1.015 5.4,5.4 0 0 1 0.541,0.949 c 0.356,0.712 0.8,1.635 1.384,2.769 1.2,2.492 2.861,5.933 4.852,10.1 l -0.448,-0.066 c 3.956,-4.747 8.821,-10.759 13.9,-17.431 6.3,-8.281 11.682,-16.007 15.519,-21.651 l 4.5,-6.711 1.226,-1.82 a 2.911,2.911 0 0 1 0.468,-0.602 z"
       fill="#263238" />
    <path
       id="Path_1075"
       data-name="Path 1075"
       d="m 526.431,520.962 c -0.2,0 0.409,-6.87 1.319,-15.3 0.91,-8.43 1.846,-15.229 2.031,-15.2 0.185,0.029 -0.422,6.856 -1.319,15.282 -0.897,8.426 -1.873,15.231 -2.031,15.218 z"
       fill="#263238" />
    <path
       id="Path_1076"
       data-name="Path 1076"
       d="m 430.995,519.156 a 98.224,98.224 0 0 1 1.569,11.5 93.414,93.414 0 0 1 0.883,11.564 101.686,101.686 0 0 1 -1.569,-11.5 100,100 0 0 1 -0.883,-11.564 z"
       fill="#263238" />
    <path
       id="Path_1077"
       data-name="Path 1077"
       d="m 501.418,368.563 a 1.688,1.688 0 0 0 -2.558,-1.015 l -0.092,0.079 a 1.6,1.6 0 1 0 2.637,0.936 z"
       fill="#ffffff" />
    <path
       id="Path_1078"
       data-name="Path 1078"
       d="m 487.666,335.047 a 1.688,1.688 0 0 0 -2.558,-1.015 l -0.079,0.079 a 1.6,1.6 0 1 0 2.637,0.936 z"
       fill="#ffffff" />
    <path
       id="Path_1079"
       data-name="Path 1079"
       d="m 456.113,362.038 a 1.688,1.688 0 0 0 -2.558,-1.015 h -0.079 a 1.6,1.6 0 1 0 2.637,0.949 z"
       fill="#ffffff" />
    <path
       id="Path_1080"
       data-name="Path 1080"
       d="m 422.002,348.483 a 1.675,1.675 0 0 0 -2.545,-1.015 l -0.092,0.079 a 1.6,1.6 0 1 0 2.637,0.936 z"
       fill="#ffffff" />
    <path
       id="Path_1081"
       data-name="Path 1081"
       d="m 415.977,335.126 a 1.688,1.688 0 0 0 -2.558,-1.015 l -0.092,0.079 a 1.609,1.609 0 1 0 2.637,0.936 z"
       fill="#ffffff" />
    <path
       id="Path_1082"
       data-name="Path 1082"
       d="m 418.601,319.699 a 1.688,1.688 0 0 0 -2.558,-1.015 l -0.092,0.066 a 1.6,1.6 0 1 0 2.637,0.949 z"
       fill="#ffffff" />
    <path
       id="Path_1083"
       data-name="Path 1083"
       d="m 399.706,340.928 a 1.688,1.688 0 0 0 -2.558,-1.015 l -0.092,0.066 a 1.6,1.6 0 1 0 2.637,0.949 z"
       fill="#ffffff" />
    <path
       id="Path_1084"
       data-name="Path 1084"
       d="m 443.521,347.046 a 1.675,1.675 0 0 0 -2.545,-1.015 l -0.092,0.079 a 1.6,1.6 0 1 0 2.637,0.936 z"
       fill="#ffffff" />
    <path
       id="Path_1085"
       data-name="Path 1085"
       d="m 406.417,374.564 a 1.688,1.688 0 0 0 -2.558,-1.015 h -0.092 a 1.6,1.6 0 1 0 2.637,0.949 z"
       fill="#ffffff" />
    <path
       id="Path_1086"
       data-name="Path 1086"
       d="m 372.504,453.703 a 1.688,1.688 0 0 0 -2.558,-1.015 l -0.079,0.066 a 1.6,1.6 0 1 0 2.637,0.949 z"
       fill="#ffffff" />
    <path
       id="Path_1087"
       data-name="Path 1087"
       d="m 384.608,408.055 a 1.688,1.688 0 0 0 -2.558,-1.015 l -0.092,0.079 a 1.6,1.6 0 1 0 2.637,0.936 z"
       fill="#ffffff" />
    <path
       id="Path_1088"
       data-name="Path 1088"
       d="m 473.848,327.914 a 1.688,1.688 0 0 0 -2.558,-1.015 l -0.092,0.066 a 1.6,1.6 0 1 0 2.637,0.949 z"
       fill="#ffffff" />
    <path
       id="Path_1089"
       data-name="Path 1089"
       d="m 516.358,418.788 a 1.688,1.688 0 0 0 -2.558,-1.015 l -0.092,0.079 a 1.609,1.609 0 1 0 2.637,0.936 z"
       fill="#ffffff" />
    <path
       id="Path_1090"
       data-name="Path 1090"
       d="m 532.931,340.585 a 1.675,1.675 0 0 0 -2.545,-1.015 l -0.092,0.066 a 1.6,1.6 0 1 0 2.637,0.949 z"
       fill="#ffffff" />
    <path
       id="Path_1091"
       data-name="Path 1091"
       d="m 526.432,391.797 a 1.688,1.688 0 0 0 -2.558,-1.015 l -0.092,0.079 a 1.609,1.609 0 1 0 2.637,0.936 z"
       fill="#ffffff" />
    <path
       id="Path_1092"
       data-name="Path 1092"
       d="m 489.235,428.782 a 1.688,1.688 0 0 0 -2.558,-1.015 l -0.092,0.079 a 1.6,1.6 0 1 0 2.637,0.936 z"
       fill="#ffffff" />
    <path
       id="Path_1093"
       data-name="Path 1093"
       d="m 490.805,397.981 a 1.688,1.688 0 0 0 -2.558,-1.015 l -0.092,0.079 a 1.609,1.609 0 1 0 2.637,0.936 z"
       fill="#ffffff" />
    <path
       id="Path_1094"
       data-name="Path 1094"
       d="m 513.233,340.848 a 1.675,1.675 0 0 0 -2.545,-1.015 l -0.092,0.079 a 1.6,1.6 0 1 0 2.637,0.936 z"
       fill="#ffffff" />
    <path
       id="Path_1095"
       data-name="Path 1095"
       d="m 483.077,311.023 a 1.675,1.675 0 0 0 -2.545,-1.015 l -0.092,0.066 a 1.6,1.6 0 1 0 2.637,0.949 z"
       fill="#ffffff" />
    <path
       id="Path_1096"
       data-name="Path 1096"
       d="m 481.934,359.11 a 1.675,1.675 0 0 0 -2.558,-1.015 l -0.079,0.066 a 1.6,1.6 0 1 0 2.637,0.949 z"
       fill="#ffffff" />
    <path
       id="Path_1097"
       data-name="Path 1097"
       d="m 443.376,505.799 a 1.675,1.675 0 0 0 -2.492,-1.015 l -0.092,0.066 a 1.6,1.6 0 1 0 2.637,0.949 z"
       fill="#ffffff" />
    <path
       id="Path_1098"
       data-name="Path 1098"
       d="m 399.139,481.669 a 1.688,1.688 0 0 0 -2.558,-1.015 l -0.092,0.079 a 1.6,1.6 0 1 0 2.637,0.936 z"
       fill="#ffffff" />
    <path
       id="Path_1099"
       data-name="Path 1099"
       d="m 363.366,493.497 a 1.688,1.688 0 0 0 -2.558,-1.015 l -0.079,0.066 a 1.6,1.6 0 1 0 2.637,0.949 z"
       fill="#ffffff" />
    <path
       id="Path_1100"
       data-name="Path 1100"
       d="m 359.543,513.867 a 1.688,1.688 0 0 0 -2.558,-1.015 l -0.092,0.066 a 1.6,1.6 0 1 0 2.637,0.949 z"
       fill="#ffffff" />
    <path
       id="Path_1101"
       data-name="Path 1101"
       d="m 393.073,520.685 a 1.688,1.688 0 0 0 -2.558,-1.015 l -0.079,0.079 a 1.6,1.6 0 1 0 2.637,0.936 z"
       fill="#ffffff" />
    <path
       id="Path_1102"
       data-name="Path 1102"
       d="m 381.865,475.063 a 1.688,1.688 0 0 0 -2.558,-1.015 l -0.092,0.079 a 1.609,1.609 0 1 0 2.637,0.936 z"
       fill="#ffffff" />
    <path
       id="Path_1103"
       data-name="Path 1103"
       d="m 423.004,486.667 a 1.675,1.675 0 0 0 -2.558,-1.015 l -0.079,0.066 a 1.6,1.6 0 1 0 2.637,0.949 z"
       fill="#ffffff" />
    <path
       id="Path_1104"
       data-name="Path 1104"
       d="m 520.801,474.997 a 1.661,1.661 0 0 0 -2.545,-1.015 l -0.092,0.066 a 1.6,1.6 0 1 0 2.637,0.949 z"
       fill="#ffffff" />
    <path
       id="Path_1105"
       data-name="Path 1105"
       d="m 460.293,532.974 a 1.688,1.688 0 0 0 -2.558,-1.015 l -0.092,0.079 a 1.6,1.6 0 1 0 2.637,0.936 z"
       fill="#ffffff" />
    <path
       id="Path_1106"
       data-name="Path 1106"
       d="m 486.097,500.696 a 1.675,1.675 0 0 0 -2.545,-1.015 l -0.092,0.079 a 1.6,1.6 0 1 0 2.637,0.936 z"
       fill="#ffffff" />
    <path
       id="Path_1107"
       data-name="Path 1107"
       d="m 501.432,526.949 a 1.688,1.688 0 0 0 -2.532,-1.068 l -0.079,0.079 a 1.6,1.6 0 1 0 2.637,0.936 z"
       fill="#ffffff" />
    <path
       id="Path_1108"
       data-name="Path 1108"
       d="m 458.776,389.477 a 1.688,1.688 0 0 0 -2.558,-1.015 l -0.092,0.079 a 1.6,1.6 0 1 0 2.637,0.936 z"
       fill="#ffffff" />
    <path
       id="Path_1109"
       data-name="Path 1109"
       d="m 493.494,456.498 a 1.688,1.688 0 0 0 -2.558,-1.015 l -0.092,0.066 a 1.6,1.6 0 1 0 2.637,0.949 z"
       fill="#ffffff" />
    <path
       id="Path_1110"
       data-name="Path 1110"
       d="m 482.234,481.88 a 1.688,1.688 0 0 0 -2.558,-1.015 l -0.092,0.066 a 1.6,1.6 0 1 0 2.637,0.949 z"
       fill="#ffffff" />
    <path
       id="Path_1111"
       data-name="Path 1111"
       d="m 519.246,502.264 a 1.688,1.688 0 0 0 -2.558,-1.015 l -0.092,0.079 a 1.6,1.6 0 1 0 2.637,0.936 z"
       fill="#ffffff" />
    <path
       id="Path_1112"
       data-name="Path 1112"
       d="m 417.968,531.708 a 1.675,1.675 0 0 0 -2.558,-1.015 l -0.092,0.066 a 1.6,1.6 0 1 0 2.637,0.949 z"
       fill="#ffffff" />
    <path
       id="Path_1113"
       data-name="Path 1113"
       d="m 333.581,523.995 a 1.688,1.688 0 0 0 -2.558,-1.015 l -0.092,0.079 a 1.609,1.609 0 1 0 2.637,0.936 z"
       fill="#ffffff" />
    <path
       id="Path_1114"
       data-name="Path 1114"
       d="m 407.921,510.137 a 1.688,1.688 0 0 0 -2.558,-1.015 l -0.092,0.079 a 1.609,1.609 0 1 0 2.637,0.936 z"
       fill="#ffffff" />
    <path
       id="Path_1115"
       data-name="Path 1115"
       d="m 336.718,495.066 a 1.675,1.675 0 0 0 -2.558,-1.015 l -0.079,0.066 a 1.6,1.6 0 1 0 2.637,0.949 z"
       fill="#ffffff" />
    <path
       id="Path_1116"
       data-name="Path 1116"
       d="m 455.652,447.203 a 1.688,1.688 0 0 0 -2.558,-1.015 l -0.092,0.066 a 1.6,1.6 0 1 0 2.637,0.949 z"
       fill="#ffffff" />
    <path
       id="Path_1117"
       data-name="Path 1117"
       d="m 430.758,374.564 a 1.688,1.688 0 0 0 -2.558,-1.015 h -0.092 a 1.6,1.6 0 1 0 2.637,0.949 z"
       fill="#ffffff" />
    <path
       id="Path_1118"
       data-name="Path 1118"
       d="m 424.534,437.538 a 1.688,1.688 0 0 0 -2.558,-1.015 l -0.079,0.079 a 1.6,1.6 0 1 0 2.637,0.936 z"
       fill="#ffffff" />
    <path
       id="Path_1119"
       data-name="Path 1119"
       d="m 414.407,417.008 a 1.688,1.688 0 0 0 -2.558,-1.015 h -0.079 a 1.6,1.6 0 1 0 2.637,0.949 z"
       fill="#ffffff" />
    <path
       id="Path_1120"
       data-name="Path 1120"
       d="m 459.199,481.59 a 1.688,1.688 0 0 0 -2.558,-1.015 l -0.092,0.079 a 1.609,1.609 0 1 0 2.637,0.936 z"
       fill="#ffffff" />
    <path
       id="Path_1121"
       data-name="Path 1121"
       d="m 427.619,468.919 a 1.675,1.675 0 0 0 -2.558,-1.055 l -0.092,0.079 a 1.6,1.6 0 1 0 2.637,0.936 z"
       fill="#ffffff" />
    <path
       id="Path_1122"
       data-name="Path 1122"
       d="m 441.134,399.366 a 1.675,1.675 0 0 0 -2.545,-1.015 l -0.092,0.066 a 1.6,1.6 0 1 0 2.637,0.949 z"
       fill="#ffffff" />
    <path
       id="Path_1123"
       data-name="Path 1123"
       d="m 393.073,448.613 a 1.688,1.688 0 0 0 -2.558,-1.015 l -0.079,0.079 a 1.6,1.6 0 1 0 2.637,0.936 z"
       fill="#ffffff" />
    <path
       id="Path_1124"
       data-name="Path 1124"
       d="m 467.255,426.013 a 1.688,1.688 0 0 0 -2.558,-1.015 l -0.092,0.066 a 1.6,1.6 0 1 0 2.637,0.949 z"
       fill="#ffffff" />
    <path
       id="Path_1125"
       data-name="Path 1125"
       d="m 536.07,366.995 a 1.688,1.688 0 0 0 -2.559,-1.011 l -0.092,0.079 a 1.6,1.6 0 1 0 2.637,0.936 z"
       fill="#ffffff" />
    <path
       id="Path_1126"
       data-name="Path 1126"
       d="m 508.13,322.31 a 1.688,1.688 0 0 0 -2.558,-1.015 l -0.092,0.079 a 1.6,1.6 0 1 0 2.637,0.936 z"
       fill="#ffffff" />
    <path
       id="Path_1127"
       data-name="Path 1127"
       d="m 453.991,327.914 a 1.688,1.688 0 0 0 -2.558,-1.015 l -0.092,0.066 a 1.6,1.6 0 1 0 2.637,0.949 z"
       fill="#ffffff" />
    <path
       id="Path_1128"
       data-name="Path 1128"
       d="m 398.756,167.512 c -10.377,6.593 -14.5,20.451 -12.553,28.639 1,4.127 2.874,8.28 2.057,12.434 -0.7,3.6 -3.3,6.487 -5.274,9.6 a 28.9,28.9 0 0 0 36.128,41.745"
       fill="#263238" />
    <path
       id="Path_1129"
       data-name="Path 1129"
       d="m 392.612,221.559 c -25.263,-55.564 34.836,-83.477 67.615,-74.221 30.814,8.7 43.96,24.037 49.037,44.646 5.077,20.609 4.826,42.958 -3.257,62.591 -3.956,9.678 -11.155,19.515 -21.558,20.728"
       fill="#263238" />
    <path
       id="Path_1130"
       data-name="Path 1130"
       d="m 422.213,357.251 c -0.435,-26.556 -0.752,-63.013 -0.752,-62.868 0,0.145 -22.771,-3.784 -27.558,-33.531 -2.347,-14.807 -1.6,-39.082 -0.356,-58.926 1.134,-17.866 12.961,-39.781 30.762,-37.9 l 55.577,14.043 a 10.456,10.456 0 0 1 9.362,10.627 v 0 l -3.613,114.943"
       fill="#ffbe9d" />
    <path
       id="Path_1131"
       data-name="Path 1131"
       d="m 403.49,220.081 a 3.784,3.784 0 0 0 3.613,3.863 3.626,3.626 0 0 0 3.956,-3.375 3.811,3.811 0 0 0 -3.613,-3.877 3.639,3.639 0 0 0 -3.956,3.389 z"
       fill="#263238" />
    <path
       id="Path_1132"
       data-name="Path 1132"
       d="m 442.941,220.08 a 3.784,3.784 0 0 0 3.613,3.85 3.626,3.626 0 0 0 3.956,-3.375 3.784,3.784 0 0 0 -3.613,-3.863 3.626,3.626 0 0 0 -3.956,3.389 z"
       fill="#263238" />
    <path
       id="Path_1133"
       data-name="Path 1133"
       d="m 399.376,213.148 c 0.462,0.514 3.428,-1.53 7.529,-1.319 4.101,0.211 7.041,2.294 7.516,1.806 0.224,-0.211 -0.237,-1.121 -1.516,-2.123 a 10.417,10.417 0 0 0 -5.986,-2.07 10.1,10.1 0 0 0 -6.013,1.727 c -1.293,0.897 -1.754,1.741 -1.53,1.979 z"
       fill="#263238" />
    <path
       id="Path_1134"
       data-name="Path 1134"
       d="m 438.378,214.123 c 0.475,0.5 3.362,-1.661 7.463,-1.661 4.101,0 7.133,2.031 7.568,1.53 0.224,-0.224 -0.264,-1.121 -1.582,-2.07 a 10.416,10.416 0 0 0 -6.065,-1.846 10,10 0 0 0 -5.934,1.952 c -1.265,0.974 -1.687,1.871 -1.45,2.095 z"
       fill="#263238" />
    <path
       id="Path_1135"
       data-name="Path 1135"
       d="m 424.297,245.768 c 0,-0.237 -2.532,-0.672 -6.672,-1.213 -1.055,-0.105 -2.044,-0.316 -2.215,-1.028 a 5.274,5.274 0 0 1 0.7,-3.112 c 0.976,-2.532 2.017,-5.2 3.1,-7.99 4.312,-11.366 7.423,-20.728 6.962,-20.9 -0.461,-0.172 -4.325,8.913 -8.623,20.292 l -2.98,8.043 a 6.039,6.039 0 0 0 -0.541,4.114 2.637,2.637 0 0 0 1.727,1.529 6.7,6.7 0 0 0 1.78,0.251 c 4.164,0.225 6.748,0.238 6.762,0.014 z"
       fill="#263238" />
    <path
       id="Path_1136"
       data-name="Path 1136"
       d="m 421.462,294.385 a 75.777,75.777 0 0 0 39.873,-10.627 c 0,0 -10.074,20.7 -39.873,17.919 z"
       fill="#eb996e" />
    <path
       id="Path_1137"
       data-name="Path 1137"
       d="m 437.364,208.282 c 0.4,1.121 4.509,0.58 9.322,1.174 4.813,0.594 8.716,1.885 9.362,0.883 0.29,-0.475 -0.4,-1.53 -1.965,-2.637 a 16.363,16.363 0 0 0 -14.24,-1.569 c -1.767,0.738 -2.664,1.622 -2.479,2.149 z"
       fill="#263238" />
    <path
       id="Path_1138"
       data-name="Path 1138"
       d="m 400.325,202.836 c 0.725,0.936 3.56,0 6.962,-0.079 3.402,-0.079 6.289,0.633 6.949,-0.343 0.29,-0.475 -0.158,-1.411 -1.424,-2.294 a 9.625,9.625 0 0 0 -5.657,-1.53 9.731,9.731 0 0 0 -5.551,1.872 c -1.2,0.937 -1.595,1.899 -1.279,2.374 z"
       fill="#263238" />
    <path
       id="Path_1139"
       data-name="Path 1139"
       d="m 484.146,227.889 c 0.435,-0.211 15.941,-7.067 16.126,10.759 0.185,17.826 -17.761,14.333 -17.8,13.818 -0.039,-0.515 1.674,-24.577 1.674,-24.577 z"
       fill="#ffbe9d" />
    <path
       id="Path_1140"
       data-name="Path 1140"
       d="m 487.85,245.636 c 0.079,0 0.316,0.211 0.844,0.448 a 3.138,3.138 0 0 0 2.321,0 c 1.872,-0.712 3.428,-3.718 3.481,-6.936 a 9.981,9.981 0 0 0 -0.91,-4.43 3.56,3.56 0 0 0 -2.359,-2.364 1.569,1.569 0 0 0 -1.82,0.87 c -0.237,0.5 -0.119,0.857 -0.211,0.883 -0.092,0.026 -0.4,-0.29 -0.251,-1.028 a 1.964,1.964 0 0 1 0.686,-1.121 2.321,2.321 0 0 1 1.714,-0.475 4.364,4.364 0 0 1 3.27,2.729 10.549,10.549 0 0 1 1.134,4.958 c -0.079,3.586 -1.886,6.975 -4.457,7.74 a 3.349,3.349 0 0 1 -2.848,-0.435 c -0.554,-0.404 -0.647,-0.812 -0.594,-0.839 z"
       fill="#eb996e" />
    <path
       id="Path_1141"
       data-name="Path 1141"
       d="m 418.372,155.21 c -9.915,5.129 -14,25.408 -9.9,35.8 4.1,10.392 15.163,15.453 26.068,17.84 10.905,2.387 21.6,2.637 32.357,-0.316 0.738,7.226 5.076,14.649 12.091,16.561 9.3,2.518 18.657,-5.986 20.728,-15.387 2.071,-9.401 -1.042,-19.079 -4.1,-28.217"
       fill="#263238" />
    <path
       id="Path_1142"
       data-name="Path 1142"
       d="m 497.028,219.885 a 12.912,12.912 0 0 1 -1.384,1.319 46.558,46.558 0 0 1 -4.1,3.1 25.367,25.367 0 0 1 -6.936,3.362 14.992,14.992 0 0 1 -9.454,-0.145 14.622,14.622 0 0 1 -7.16,-6.184 19.871,19.871 0 0 1 -2.571,-7.278 26.559,26.559 0 0 1 -0.277,-5.169 5.763,5.763 0 0 1 0.224,-1.872 c 0.2,0 0,2.7 0.765,6.909 a 20.462,20.462 0 0 0 2.637,6.909 14.069,14.069 0 0 0 6.711,5.723 14.425,14.425 0 0 0 8.847,0.185 26.661,26.661 0 0 0 6.79,-3.046 c 3.666,-2.297 5.802,-3.958 5.908,-3.813 z"
       fill="#263238" />
    <path
       id="Path_1143"
       data-name="Path 1143"
       d="m 425.509,257.213 a 16.849,16.849 0 0 0 2.215,4.338 5.749,5.749 0 0 0 4.1,2.387 5.274,5.274 0 0 0 4.378,-2.387 8.32,8.32 0 0 0 1.213,-4.984 c -0.066,-1.569 -0.791,-3.441 -2.347,-3.626 a 3.824,3.824 0 0 0 -1.886,0.422 l -8.2,3.323"
       fill="#eb996e" />
    <path
       id="Path_1144"
       data-name="Path 1144"
       d="m 428.78,263.951 c 0,-0.251 1.846,0.475 4.378,-0.541 a 6.224,6.224 0 0 0 3.31,-2.993 6.592,6.592 0 0 0 0.105,-5.366 6.209,6.209 0 0 0 -0.712,-1.226 c -0.33,-0.343 -0.277,-0.33 -0.62,-0.277 a 8.638,8.638 0 0 0 -1.319,0.514 l -1.319,0.554 c -1.754,0.712 -3.349,1.319 -4.681,1.833 -2.637,1 -4.391,1.53 -4.47,1.319 -0.079,-0.211 1.477,-1.055 4.061,-2.294 1.319,-0.62 2.835,-1.319 4.562,-2.123 l 1.319,-0.593 c 0.488,-0.2 0.844,-0.409 1.5,-0.62 a 1.925,1.925 0 0 1 1.213,0 2.242,2.242 0 0 1 0.91,0.712 7.5,7.5 0 0 1 0.672,8.109 6.949,6.949 0 0 1 -4.167,3.362 6.5,6.5 0 0 1 -3.547,0.145 c -0.839,-0.143 -1.222,-0.423 -1.195,-0.515 z"
       fill="#263238" />
    <path
       id="Path_1145"
       data-name="Path 1145"
       d="m 504.174,215.665 c -1.82,-0.132 -16.548,1.78 -15.387,29.14 1.081,25.567 19.013,19.936 24.736,10.311 5.379,-9.111 8.518,-38.198 -9.349,-39.451 z"
       fill="#455a64" />
    <path
       id="Path_1146"
       data-name="Path 1146"
       d="m 513.233,218.896 a 4.453,4.453 0 0 1 -0.066,-0.712 c 0,-0.541 0,-1.226 -0.079,-2.1 0,-1.886 -0.132,-4.523 -0.224,-7.793 -0.132,-6.711 -0.316,-16.06 -0.541,-26.832 l 0.33,0.316 h -7.587 l 0.343,-0.343 c 0,2.031 0.105,4.18 0.171,6.369 0.251,10.258 0.488,19.778 0.686,27.835 v 0.237 h -0.224 a 13.726,13.726 0 0 0 -7.819,5.037 18.461,18.461 0 0 0 -3.125,6.593 29.084,29.084 0 0 0 -0.8,4.681 c 0,0.541 -0.066,0.963 -0.079,1.239 a 3.709,3.709 0 0 0 0,0.435 1.833,1.833 0 0 1 0,-0.435 v -1.253 a 24.519,24.519 0 0 1 0.659,-4.747 18.461,18.461 0 0 1 3.072,-6.8 14.214,14.214 0 0 1 8.056,-5.274 l -0.224,0.29 c -0.224,-8 -0.5,-17.563 -0.791,-27.835 -0.066,-2.176 -0.119,-4.325 -0.171,-6.369 v -0.355 h 8.267 v 0.33 c 0.119,10.786 0.224,20.121 0.3,26.846 v 9.876 a 2.837,2.837 0 0 1 -0.154,0.764 z"
       fill="#455a64" />
    <path
       id="Path_1147"
       data-name="Path 1147"
       d="m 504.173,181.449 c 0,0 -7.7,-18.011 -26.041,-26.912 a 109.662,109.662 0 0 0 -21.98,-8.149 c 0,0 10.707,-2.532 28.019,5.169 7.911,3.507 15.823,8.056 21.1,14.9 3.323,4.338 7.489,12.816 7.476,14.992 z"
       fill="#455a64" />
    <path
       id="Path_1148"
       data-name="Path 1148"
       d="m 456.706,399.629 c 0,0 0.105,-0.132 0.33,-0.356 0.225,-0.224 0.567,-0.567 0.989,-1.028 a 48.934,48.934 0 0 0 3.56,-4.219 68.916,68.916 0 0 0 4.813,-7.384 c 1.714,-2.993 3.507,-6.527 5.446,-10.469 3.89,-7.911 8.386,-17.431 13.054,-28.375 2.321,-5.472 4.694,-11.287 7.067,-17.418 l 1.767,-4.641 a 26.95,26.95 0 0 1 2.123,-4.681 9.678,9.678 0 0 1 3.824,-3.639 5.432,5.432 0 0 1 2.637,-0.672 2.73,2.73 0 0 1 1.4,0.5 2.993,2.993 0 0 1 0.883,1.187 v 0.2 a 4.562,4.562 0 0 1 -0.712,1.754 2.769,2.769 0 0 1 -1.648,1.081 5.972,5.972 0 0 1 -3.679,-0.672 5.828,5.828 0 0 1 -3.257,-6.395 5.129,5.129 0 0 1 2.149,-3.217 5.986,5.986 0 0 1 3.745,-1.068 4.127,4.127 0 0 1 3.455,1.912 1.991,1.991 0 0 1 -0.132,2.149 3.8,3.8 0 0 1 -1.675,1.213 5.5,5.5 0 0 1 -6.316,-1.793 4.628,4.628 0 0 1 -0.857,-3.323 5.71,5.71 0 0 1 1.319,-3.112 4.773,4.773 0 0 1 2.967,-1.635 3.8,3.8 0 0 1 3.2,1.108 2.373,2.373 0 0 1 0.633,1.675 2.216,2.216 0 0 1 -0.765,1.622 3.692,3.692 0 0 1 -3.217,0.87 4.048,4.048 0 0 1 -2.571,-2.057 8.478,8.478 0 0 1 -0.963,-3.046 10.786,10.786 0 0 1 0.7,-6.145 4.575,4.575 0 0 1 2.255,-2.228 4.127,4.127 0 0 1 3.125,0.105 2.967,2.967 0 0 1 1.938,2.439 2.716,2.716 0 0 1 -1.675,2.637 3.323,3.323 0 0 1 -3.033,0 4.193,4.193 0 0 1 -1.886,-2.321 5.789,5.789 0 0 1 -0.171,-2.874 13.081,13.081 0 0 1 0.607,-2.743 5.023,5.023 0 0 1 1.6,-2.334 6.394,6.394 0 0 1 2.492,-1.226 2.637,2.637 0 0 1 1.45,0 3.073,3.073 0 0 1 1.2,0.765 3.455,3.455 0 0 1 0.778,1.16 1.938,1.938 0 0 1 0,1.464 2.373,2.373 0 0 1 -2.36,1.319 4.3,4.3 0 0 1 -2.479,-0.831 6.8,6.8 0 0 1 -2.637,-4.153 7,7 0 0 1 0.725,-4.826 5.34,5.34 0 0 1 1.49,-1.806 4.813,4.813 0 0 1 2.1,-0.91 3.389,3.389 0 0 1 2.242,0.316 2.334,2.334 0 0 1 1.213,1.859 3.283,3.283 0 0 1 -2.479,3.164 3.586,3.586 0 0 1 -3.586,-1.319 5.749,5.749 0 0 1 -1.319,-3.375 21.1,21.1 0 0 1 1.319,-6.3 c 0.541,-1.9 1.028,-3.639 1.477,-5.2 0.884,-3.1 1.569,-5.512 2.057,-7.173 0.224,-0.8 0.409,-1.424 0.541,-1.859 0.132,-0.435 0.211,-0.633 0.211,-0.633 a 2.242,2.242 0 0 1 -0.145,0.646 c -0.145,0.422 -0.277,1.081 -0.475,1.885 -0.448,1.675 -1.108,4.1 -1.938,7.2 l -1.411,5.208 c -0.448,1.912 -1.319,3.956 -1.226,6.2 a 5.485,5.485 0 0 0 1.319,3.138 3.2,3.2 0 0 0 3.165,1.187 2.848,2.848 0 0 0 2.136,-2.637 1.886,1.886 0 0 0 -0.976,-1.49 2.993,2.993 0 0 0 -1.925,-0.251 4.312,4.312 0 0 0 -1.9,0.831 4.957,4.957 0 0 0 -1.318,1.648 6.592,6.592 0 0 0 -0.488,4.351 6.3,6.3 0 0 0 2.452,3.811 3.864,3.864 0 0 0 2.162,0.725 1.806,1.806 0 0 0 1.82,-0.962 2.018,2.018 0 0 0 -0.7,-2 2.638,2.638 0 0 0 -0.962,-0.62 2.267,2.267 0 0 0 -1.147,0 5.01,5.01 0 0 0 -3.652,3.2 11.988,11.988 0 0 0 -0.567,2.637 5.129,5.129 0 0 0 0.158,2.637 3.468,3.468 0 0 0 1.582,1.965 2.756,2.756 0 0 0 2.466,0 2.07,2.07 0 0 0 1.319,-1.965 2.334,2.334 0 0 0 -1.543,-1.886 3.586,3.586 0 0 0 -2.637,-0.092 3.955,3.955 0 0 0 -1.912,1.912 10.245,10.245 0 0 0 -0.62,5.762 7.911,7.911 0 0 0 0.883,2.809 3.4,3.4 0 0 0 2.123,1.727 3.006,3.006 0 0 0 2.637,-0.7 1.635,1.635 0 0 0 0.092,-2.36 3.151,3.151 0 0 0 -2.637,-0.883 4.048,4.048 0 0 0 -2.532,1.424 4.536,4.536 0 0 0 -0.475,5.577 4.839,4.839 0 0 0 5.512,1.556 3.284,3.284 0 0 0 1.319,-0.989 1.319,1.319 0 0 0 0.079,-1.424 3.468,3.468 0 0 0 -2.888,-1.543 4.945,4.945 0 0 0 -5.182,3.732 5.09,5.09 0 0 0 2.769,5.551 5.182,5.182 0 0 0 3.23,0.633 2.637,2.637 0 0 0 1.846,-2.307 v 0.2 a 1.978,1.978 0 0 0 -1.727,-1.319 4.707,4.707 0 0 0 -2.334,0.607 8.965,8.965 0 0 0 -3.573,3.4 25.75,25.75 0 0 0 -2.07,4.549 l -1.793,4.654 c -2.373,6.118 -4.773,11.867 -7.12,17.4 -4.694,10.944 -9.23,20.49 -13.185,28.349 -1.965,3.956 -3.784,7.45 -5.538,10.443 a 67.632,67.632 0 0 1 -4.918,7.344 34.664,34.664 0 0 1 -5.019,5.487 z"
       fill="#ffffff" />
    <path
       id="Path_1149"
       data-name="Path 1149"
       d="m 520.115,202.836 a 17.3,17.3 0 0 0 -1.2,-4.879 19.211,19.211 0 0 0 -9.467,-9.48 25.566,25.566 0 0 0 -9.124,-2.228 42.932,42.932 0 0 0 -10.825,0.817 c -7.555,1.4 -15.493,4.654 -24.38,6 a 49.71,49.71 0 0 1 -13.054,0 52.53,52.53 0 0 1 -11.735,-3.191 51.792,51.792 0 0 1 -17.141,-11.288 46.15,46.15 0 0 1 -8.28,-11.076 15.7,15.7 0 0 1 -0.976,-1.938 l -0.633,-1.464 c -0.158,-0.356 -0.277,-0.659 -0.382,-0.9 a 1.133,1.133 0 0 1 -0.105,-0.316 1.319,1.319 0 0 1 0.171,0.29 l 0.435,0.87 0.7,1.424 a 16.53,16.53 0 0 0 1.028,1.912 48.011,48.011 0 0 0 8.386,10.852 51.424,51.424 0 0 0 28.569,14.152 48.879,48.879 0 0 0 12.869,0 c 8.768,-1.319 16.719,-4.562 24.367,-5.933 a 43.2,43.2 0 0 1 10.97,-0.765 25.645,25.645 0 0 1 9.3,2.36 19.237,19.237 0 0 1 9.507,9.81 14.388,14.388 0 0 1 0.91,3.666 v 0.976 a 1.133,1.133 0 0 1 0.092,0.33 z"
       fill="#455a64" />
    <path
       id="Path_1150"
       data-name="Path 1150"
       d="m 500.218,174.422 a 6.414,6.414 0 0 1 -0.949,0.158 c -0.62,0.092 -1.543,0.224 -2.716,0.435 -2.347,0.382 -5.709,1.134 -9.85,2.162 a 104.8,104.8 0 0 1 -14.754,2.861 74.14,74.14 0 0 1 -18.381,-0.409 77.794,77.794 0 0 1 -17.761,-4.773 75.159,75.159 0 0 1 -13.383,-6.922 c -1.767,-1.2 -3.349,-2.307 -4.694,-3.362 -1.345,-1.055 -2.479,-1.965 -3.349,-2.782 l -2,-1.886 c -0.448,-0.435 -0.686,-0.672 -0.659,-0.7 a 5.152,5.152 0 0 1 0.752,0.593 l 2.083,1.78 c 0.9,0.791 2.1,1.635 3.415,2.637 1.315,1.002 2.954,2.1 4.72,3.257 a 79.548,79.548 0 0 0 30.933,11.432 75.671,75.671 0 0 0 18.236,0.448 107.713,107.713 0 0 0 14.689,-2.637 c 4.153,-0.963 7.555,-1.648 9.929,-1.965 1.187,-0.158 2.11,-0.251 2.743,-0.29 a 4.855,4.855 0 0 1 0.996,-0.037 z"
       fill="#455a64" />
    <path
       id="Path_1151"
       data-name="Path 1151"
       d="m 502.17,262.765 a 2.52,2.52 0 0 1 -0.514,-0.158 8.388,8.388 0 0 1 -1.319,-0.7 12.1,12.1 0 0 1 -3.863,-4.114 19.87,19.87 0 0 1 -2.373,-8.03 57.577,57.577 0 0 1 0,-10.232 62.337,62.337 0 0 1 1.688,-10.087 29.1,29.1 0 0 1 2.94,-7.819 12.078,12.078 0 0 1 3.956,-4.1 7.223,7.223 0 0 1 1.319,-0.686 c 0.33,-0.119 0.514,-0.171 0.514,-0.145 a 16.058,16.058 0 0 0 -1.74,1.055 12.644,12.644 0 0 0 -3.613,4.114 29.668,29.668 0 0 0 -2.743,7.74 65.925,65.925 0 0 0 -1.635,9.995 61.643,61.643 0 0 0 0,10.1 20.055,20.055 0 0 0 2.162,7.911 12.341,12.341 0 0 0 3.586,4.14 c 1.002,0.699 1.674,0.95 1.635,1.016 z"
       fill="#263238" />
    <rect
       id="Rectangle_129"
       data-name="Rectangle 129"
       width="21.308001"
       height="8.0299997"
       rx="2.8499999"
       transform="rotate(-11.1)"
       fill="#455a64"
       x="367.22632"
       y="339.11203" />
    <path
       id="Path_1152"
       data-name="Path 1152"
       d="m 445.459,260.694 62.565,-19.62 a 2.954,2.954 0 0 1 3.692,1.912 v 0 a 2.966,2.966 0 0 1 -2.044,3.758 l -63.976,17.273 z"
       fill="#455a64" />
    <path
       id="Path_1153"
       data-name="Path 1153"
       d="m 491.7,252.074 a 14,14 0 0 1 2.07,-0.725 l 5.722,-1.74 c 2.4,-0.738 5.353,-1.53 8.465,-2.545 a 5.67,5.67 0 0 0 2.044,-1.319 3.085,3.085 0 0 0 0.883,-2.176 1.9,1.9 0 0 0 -1.319,-1.793 4.787,4.787 0 0 0 -2.637,0.079 l -18.763,6.039 -5.709,1.767 a 13.067,13.067 0 0 1 -2.017,0.646 14.115,14.115 0 0 1 2.044,-0.8 l 5.643,-1.978 c 4.786,-1.622 11.353,-3.877 18.737,-6.237 a 5.406,5.406 0 0 1 3.006,0 2.637,2.637 0 0 1 1.741,2.426 3.745,3.745 0 0 1 -1.081,2.637 6.329,6.329 0 0 1 -2.4,1.319 c -3.23,1.015 -6.118,1.727 -8.557,2.413 l -5.723,1.543 a 11.7,11.7 0 0 1 -2.149,0.444 z"
       fill="#263238" />
    <path
       id="Path_1154"
       data-name="Path 1154"
       d="m 389.46,204.155 c 2.136,7.516 -5.5,13.963 -8.188,21.308 -2.637,7.094 -0.4,15.045 2.809,21.9 3.209,6.855 7.423,13.344 9.058,20.714 4.048,18.2 -12.408,37.8 -9.23,56.17 1.134,6.7 3.837,13.686 6.171,20.055 a 26.5,26.5 0 0 1 0,18.631 c -3.56,10.548 -9.6,15.493 -13.845,25.751 -2.176,5.274 -2,11.129 -1.9,16.8 0.1,5.671 0.079,11.6 -2.452,16.693 -2.531,5.093 -8.307,9.019 -13.792,7.542 a 20.213,20.213 0 0 0 24.156,4.6 c 7.212,-3.85 11.247,-11.656 14.7,-19.066 16.719,-35.878 25.567,-38.91 25.052,-78.493 0,-2.545 -0.5,-42.194 -0.5,-42.194 a 39.557,39.557 0 0 1 -9.876,-4.153 c -18.671,-12.9 -19.356,-35.864 -19.211,-53.678"
       fill="#263238" />
    <path
       id="Path_1155"
       data-name="Path 1155"
       d="m 426.776,324.248 v 14.939 c 0,0 -11.485,58.609 -14.939,91.164 -3.454,32.555 -4.022,41.152 -4.022,41.152 0,0 8.241,12.856 25.474,-8.979 17.233,-21.835 20.306,-25.277 27.206,-25.656 0,0 -8.426,-91.547 -8.043,-94.935 a 13.832,13.832 0 0 1 3.059,-6.514 z"
       fill="#ffbe9d" />
    <path
       id="Path_1156"
       data-name="Path 1156"
       d="m 449.375,290.546 c 0,0 -18.763,24.894 -20.292,28.322 -1.529,3.428 -2.307,5.353 -2.307,5.353 l 28.731,11.115 27.968,-30.638 10.337,-27.2 -3.072,-32.173 c 0,0 -6.118,-0.382 -7.265,4.984 a 40.309,40.309 0 0 0 -0.778,10.337 l -8.57,-6.9 -13.832,-4.206 c 0,0 -3.257,5.353 2.11,8.043 5.367,2.69 6.9,2.637 6.9,2.637 l 4.826,8.426 -2.11,9.441 -9.784,-9.23 a 5.577,5.577 0 0 0 -7.12,-0.448 l -6.329,4.589 -5.92,-2.637 -11.493,10.269 -4.6,4.206 c 0,0 3.072,5.749 9.23,3.072 l 6.131,-2.637 z"
       fill="#ffbe9d" />
    <path
       id="Path_1157"
       data-name="Path 1157"
       d="m 426.78,329.299 a 6.2,6.2 0 0 1 0,-0.8 22.3,22.3 0 0 1 0.185,-2.334 27.459,27.459 0 0 1 0.725,-3.758 16.667,16.667 0 0 1 2,-4.826 c 4.3,-6.593 11.063,-15.823 19.5,-27.175 v 0.343 l -7.278,-5.353 h 0.251 l -3.783,1.669 a 26.189,26.189 0 0 1 -4.035,1.569 6.593,6.593 0 0 1 -4.483,-0.514 8.255,8.255 0 0 1 -3.375,-3.217 l -0.105,-0.185 0.171,-0.158 c 4.931,-4.641 10.43,-9.322 16.073,-14.333 l 0.171,-0.145 0.185,0.105 5.1,3.019 h -0.33 l 5.96,-3.956 c 1.042,-0.672 1.978,-1.319 3.1,-2 a 3.718,3.718 0 0 1 3.85,0.33 l 11.618,9.819 -0.541,0.185 c 0.633,-2.835 1.319,-5.907 2,-9.006 v 0.237 l -4.826,-8.426 0.3,0.171 a 9.612,9.612 0 0 1 -2.387,-0.646 c -0.752,-0.277 -1.5,-0.593 -2.255,-0.923 -0.755,-0.33 -1.49,-0.7 -2.228,-1.055 -0.382,-0.185 -0.752,-0.435 -1.121,-0.646 a 6.975,6.975 0 0 1 -1,-0.87 4.852,4.852 0 0 1 -1.319,-3.52 7.766,7.766 0 0 1 1.015,-3.586 l 0.132,-0.224 0.264,0.079 13.818,4.219 h 0.066 l 8.571,6.9 -0.541,0.29 a 40.952,40.952 0 0 1 0.725,-10.192 6.21,6.21 0 0 1 2.8,-4.246 8.887,8.887 0 0 1 4.879,-1.226 h 0.356 v 0.29 c 1.081,11.432 2.1,22.218 3.033,32.173 v 0 0.066 c -3.824,10.021 -7.3,19.119 -10.39,27.175 v 0 l -21.651,23.889 -5.881,6.369 c -0.672,0.7 -1.187,1.253 -1.543,1.635 l -0.541,0.541 c 0,0 0.158,-0.211 0.488,-0.593 l 1.49,-1.675 5.8,-6.448 21.548,-23.737 v 0.066 l 10.285,-27.215 v 0.132 c -0.963,-9.955 -1.991,-20.728 -3.1,-32.173 l 0.3,0.3 a 8.122,8.122 0 0 0 -4.483,1.134 5.512,5.512 0 0 0 -2.492,3.824 39.562,39.562 0 0 0 -0.712,10.008 v 0.765 l -0.593,-0.475 -8.7,-6.936 h 0.119 l -13.818,-4.206 0.382,-0.158 a 7.185,7.185 0 0 0 -0.91,3.244 4.18,4.18 0 0 0 1.134,3.046 7.084,7.084 0 0 0 0.883,0.765 c 0.356,0.2 0.672,0.409 1.042,0.593 0.738,0.356 1.464,0.725 2.2,1.042 a 19.368,19.368 0 0 0 4.364,1.516 h 0.211 l 0.079,0.132 4.826,8.426 0.066,0.119 v 0.132 c -0.7,3.1 -1.319,6.171 -2.017,9.006 l -0.119,0.554 -0.435,-0.369 -11.577,-9.8 a 3.046,3.046 0 0 0 -3.165,-0.29 c -0.976,0.58 -2.031,1.319 -3.033,1.965 l -5.973,3.956 -0.158,0.105 -0.171,-0.092 -5.1,-3.033 h 0.369 c -5.643,4.984 -11.155,9.665 -16.1,14.28 l 0.066,-0.343 a 7.607,7.607 0 0 0 3.112,2.98 5.947,5.947 0 0 0 4.114,0.475 26.113,26.113 0 0 0 3.956,-1.516 l 3.787,-1.659 h 0.145 l 0.119,0.079 7.265,5.38 0.2,0.145 -0.145,0.2 c -8.478,11.353 -15.308,20.5 -19.66,27.03 a 17.139,17.139 0 0 0 -2.044,4.734 30.552,30.552 0 0 0 -0.778,3.718 c -0.145,1.015 -0.211,1.806 -0.251,2.321 -0.04,0.515 -0.051,0.793 -0.051,0.793 z"
       fill="#eb996e" />
    <path
       id="Path_1158"
       data-name="Path 1158"
       d="m 462.324,296.308 c -0.132,0 0.369,-2.031 0.58,-5.274 a 12.1,12.1 0 0 0 -0.9,-5.538 14.806,14.806 0 0 0 -4.575,-5.142 113.667,113.667 0 0 0 -10.641,-7.239 l -3.362,-1.978 a 6.458,6.458 0 0 1 -1.213,-0.778 4.747,4.747 0 0 1 1.319,0.541 c 0.844,0.382 2.044,0.989 3.494,1.793 a 88.162,88.162 0 0 1 10.812,7.12 14.808,14.808 0 0 1 4.72,5.419 11.866,11.866 0 0 1 0.817,5.828 24.8,24.8 0 0 1 -0.646,3.877 5.129,5.129 0 0 1 -0.409,1.371 z"
       fill="#eb996e" />
    <path
       id="Path_1159"
       data-name="Path 1159"
       d="m 482.432,284.362 a 25.731,25.731 0 0 1 0.488,-3.455 54.061,54.061 0 0 0 0.593,-8.307 55.168,55.168 0 0 0 -0.738,-8.32 26.807,26.807 0 0 1 -0.541,-3.428 13.183,13.183 0 0 1 1.015,3.336 40.731,40.731 0 0 1 0.145,16.811 13.184,13.184 0 0 1 -0.962,3.362 z"
       fill="#eb996e" />
    <path
       id="Path_1160"
       data-name="Path 1160"
       d="m 354.387,186.658 -13.713,-24.222 a 64.886,64.886 0 1 0 -15.546,17.3 v 0 z"
       fill="#ffffff" />
    <path
       id="Path_1161"
       data-name="Path 1161"
       d="m 354.387,186.658 -29.351,-6.725 h -0.251 l 0.158,-0.211 v 0 l 0.237,0.237 a 66.086,66.086 0 0 1 -13.33,8.03 64.781,64.781 0 0 1 -17.761,5.063 58.212,58.212 0 0 1 -10.258,0.514 c -1.754,-0.092 -3.56,-0.145 -5.367,-0.29 l -5.472,-0.831 a 65.3,65.3 0 0 1 -40.44,-26.081 64.464,64.464 0 0 1 -10.941,-25.051 65.927,65.927 0 0 1 0.765,-28.81 63.844,63.844 0 0 1 13.882,-26.632 l 2.637,-2.914 a 38.109,38.109 0 0 1 2.848,-2.637 38.706,38.706 0 0 1 2.94,-2.637 l 3.112,-2.321 a 27.689,27.689 0 0 1 3.217,-2.057 l 3.283,-1.991 3.441,-1.648 a 28.062,28.062 0 0 1 3.468,-1.543 66.257,66.257 0 0 1 29.007,-4.472 64.016,64.016 0 0 1 26.635,7.911 65.637,65.637 0 0 1 30.749,37.829 69.79,69.79 0 0 1 2.822,21.1 64.081,64.081 0 0 1 -3.165,18.183 65.371,65.371 0 0 1 -6.5,13.95 v -0.171 l 13.594,24.3 c -0.58,-1.015 -4.984,-8.65 -13.884,-24.143 v -0.158 a 65.781,65.781 0 0 0 6.395,-13.9 64.5,64.5 0 0 0 3.072,-18.077 69.514,69.514 0 0 0 -2.861,-20.9 65.163,65.163 0 0 0 -30.537,-37.433 63.489,63.489 0 0 0 -26.37,-7.771 65.506,65.506 0 0 0 -28.731,4.444 27.433,27.433 0 0 0 -3.428,1.529 l -3.4,1.648 -3.26,1.979 a 24.144,24.144 0 0 0 -3.178,2.11 l -3.085,2.294 c -1.042,0.738 -1.925,1.7 -2.9,2.532 a 31.353,31.353 0 0 0 -2.822,2.637 l -2.637,2.874 a 63.29,63.29 0 0 0 -13.739,26.371 65.452,65.452 0 0 0 -0.778,28.52 63.962,63.962 0 0 0 10.808,24.78 64.978,64.978 0 0 0 40.057,25.83 l 5.419,0.831 c 1.793,0.158 3.586,0.2 5.274,0.3 a 58.649,58.649 0 0 0 10.179,-0.475 64.437,64.437 0 0 0 30.946,-12.9 l 1.028,-0.791 -0.791,1.042 v 0 l -0.105,-0.277 z"
       fill="#263238" />
    <path
       id="Path_1162"
       data-name="Path 1162"
       d="m 271.411,128.506 a 5.274,5.274 0 1 1 -5.274,-5.274 5.274,5.274 0 0 1 5.274,5.274 z"
       fill="#263238"
       style="fill:#1d4999;fill-opacity:1" />
    <path
       id="Path_1163"
       data-name="Path 1163"
       d="m 292.455,128.506 a 5.274,5.274 0 1 1 -5.274,-5.274 5.274,5.274 0 0 1 5.274,5.274 z"
       fill="#263238"
       style="fill:#1d4999;fill-opacity:1" />
    <path
       id="Path_1164"
       data-name="Path 1164"
       d="m 313.459,125.872 a 5.274,5.274 0 1 1 -7.186,-1.925 5.274,5.274 0 0 1 7.186,1.925 z"
       fill="#263238"
       style="fill:#1d4999;fill-opacity:1" />
    <g
       id="freepik--Table--inject-64"
       transform="translate(14.993,541.544)">
      <path
         id="Path_1165"
         data-name="Path 1165"
         d="m 626.62,442.223 c 0,0.2 -134.043,0.343 -299.31,0.343 -165.267,0 -299.31,-0.145 -299.31,-0.343 0,-0.198 134,-0.343 299.376,-0.343 165.376,0 299.244,0.158 299.244,0.343 z"
         transform="translate(-28,-441.88)"
         fill="#263238" />
    </g>
    <g
       id="freepik--Device--inject-64"
       transform="translate(103.402,212.976)">
      <path
         id="Path_1166"
         data-name="Path 1166"
         d="m 353.55,446.243 a 35.39,35.39 0 0 1 28.2,-15.928 c 19.264,-0.659 28.889,15.928 28.889,15.928 z"
         transform="translate(-12.706,-117.002)"
         fill="#455a64" />
      <path
         id="Path_1167"
         data-name="Path 1167"
         d="m 384.127,445.791 a 21.4,21.4 0 0 1 -0.567,-2.874 18.579,18.579 0 0 0 -7.634,-11.234 24.384,24.384 0 0 1 -2.466,-1.582 6.883,6.883 0 0 1 2.782,1.081 16.337,16.337 0 0 1 7.911,11.63 6.949,6.949 0 0 1 -0.026,2.98 z"
         transform="translate(-6.363,-117.064)"
         fill="#263238" />
      <path
         id="Path_1168"
         data-name="Path 1168"
         d="m 387.692,443.647 v -0.132 a 7.384,7.384 0 0 0 -7.4,-7.265 H 216.347 a 7.4,7.4 0 0 0 -7.4,7.4 z"
         transform="translate(-58.768,-115.105)"
         fill="#455a64" />
      <path
         id="Path_1169"
         data-name="Path 1169"
         d="m 106.47,233.974 c 0,3.455 2.637,209.359 2.637,209.359 l 152.951,36.8 h 12.566 L 266.581,192.69 h -11.5 z"
         transform="translate(-91.412,-192.69)"
         fill="#263238" />
      <path
         id="Path_1170"
         data-name="Path 1170"
         d="m 142.452,376.29 -47.4,86.866 h 43.327 c -7.753,-0.765 68.564,0 68.564,0 L 138.379,444.973 159.832,396.253 158,376.29 Z"
         transform="translate(-95.05,-134.205)"
         fill="#263238" />
      <path
         id="Path_1171"
         data-name="Path 1171"
         d="m 133.039,428.644 -5.129,-161.917 46.571,-4.457 5.736,172.875 -16.627,0.844 z"
         transform="translate(-84.583,-170.526)"
         fill="#263238" />
      <path
         id="Path_1172"
         data-name="Path 1172"
         d="m 197.191,435.771 v -11.563 c 0,-7.529 -0.066,-18.46 -0.105,-32.212 0,-27.518 -0.066,-66.244 -0.119,-111.154 l 0.33,0.33 h -55.049 l 0.343,-0.343 v 7.463 c 0,43.8 0,84.558 -0.066,118.524 v 0 0.066 c -14.267,26.147 -26.094,47.85 -34.375,63.013 -4.14,7.568 -7.4,13.5 -9.625,17.563 -1.108,2 -1.965,3.534 -2.545,4.6 -0.58,1.066 -0.91,1.556 -0.91,1.556 0,0 0.277,-0.554 0.831,-1.6 0.554,-1.046 1.4,-2.637 2.466,-4.654 2.2,-4.074 5.406,-10.034 9.494,-17.629 L 142.01,406.6 V 280.42 h 55.616 v 0.33 c 0,44.91 -0.092,83.635 -0.119,111.154 0,13.739 -0.079,24.683 -0.105,32.212 v 10.812 a 1.683,1.683 0 0 1 -0.211,0.843 z"
         transform="translate(-95.044,-164.744)"
         fill="#455a64" />
      <path
         id="Path_1173"
         data-name="Path 1173"
         d="m 151.45,391.43 c 0.171,0.066 -6.421,15.322 -14.728,34.045 -8.307,18.723 -15.19,33.86 -15.361,33.781 -0.171,-0.079 6.421,-15.322 14.728,-34.058 8.307,-18.736 15.19,-33.847 15.361,-33.768 z"
         transform="translate(-86.67,-129.382)"
         fill="#455a64" />
      <path
         id="Path_1174"
         data-name="Path 1174"
         d="m 226.072,480 v -2.914 c 0,-1.938 -0.066,-4.747 -0.105,-8.36 0,-7.252 -0.224,-17.748 -0.475,-30.722 -0.488,-25.949 -1.661,-61.774 -3.1,-101.344 -1.439,-39.57 -2.532,-75.434 -2.9,-101.383 -0.2,-12.975 -0.29,-23.483 -0.251,-30.735 v -8.36 c 0,1.938 0,4.747 0.105,8.36 0,7.252 0.211,17.748 0.475,30.722 0.567,25.949 1.74,61.813 3.178,101.37 1.438,39.557 2.532,75.408 2.9,101.357 0.2,12.975 0.277,23.483 0.251,30.735 v 10.535 A 2.479,2.479 0 0 1 226.072,480 Z"
         transform="translate(-55.492,-192.505)"
         fill="#455a64" />
      <path
         id="Path_1175"
         data-name="Path 1175"
         d="m 166.273,279.83 c 0.2,0 0.343,34.44 0.343,76.911 0,42.471 -0.145,76.911 -0.343,76.911 -0.198,0 -0.343,-34.427 -0.343,-76.911 0,-42.484 0.158,-76.911 0.343,-76.911 z"
         transform="translate(-72.471,-164.932)"
         fill="#455a64" />
      <path
         id="Path_1176"
         data-name="Path 1176"
         d="m 105.568,451.894 a 5.793,5.793 0 0 1 -0.659,-0.923 c -0.224,-0.316 -0.475,-0.7 -0.765,-1.134 a 15.311,15.311 0 0 1 -0.949,-1.609 40.572,40.572 0 0 1 -4.18,-11.142 55.194,55.194 0 0 1 -0.817,-17.629 70.542,70.542 0 0 1 5.722,-20.846 43.289,43.289 0 0 1 5.973,-9.507 24.016,24.016 0 0 1 1.754,-2.057 c 0.607,-0.659 1.187,-1.319 1.793,-1.951 1.319,-1.2 2.466,-2.426 3.771,-3.468 a 60.78,60.78 0 0 1 7.661,-5.551 c 1.319,-0.712 2.518,-1.464 3.758,-2.057 a 39.022,39.022 0 0 1 3.6,-1.648 41.242,41.242 0 0 1 11.5,-3.059 21.712,21.712 0 0 1 3.23,-0.2 6.8,6.8 0 0 1 1.134,0 8.791,8.791 0 0 1 -1.121,0.118 28.452,28.452 0 0 0 -3.2,0.33 43.209,43.209 0 0 0 -11.353,3.244 c -1.173,0.435 -2.307,1.094 -3.547,1.661 a 39.376,39.376 0 0 0 -3.705,2.083 60.848,60.848 0 0 0 -7.542,5.551 c -1.319,1.028 -2.466,2.255 -3.718,3.441 -0.593,0.62 -1.174,1.319 -1.767,1.925 a 25.551,25.551 0 0 0 -1.714,2.044 42.851,42.851 0 0 0 -5.881,9.375 70.687,70.687 0 0 0 -5.709,20.622 55.7,55.7 0 0 0 0.659,17.458 42.616,42.616 0 0 0 3.956,11.115 14.028,14.028 0 0 0 0.9,1.635 l 0.7,1.173 a 8.49,8.49 0 0 1 0.516,1.006 z"
         transform="translate(-94.162,-136.498)"
         fill="#455a64" />
    </g>
  </g>
</svg>
