<?xml version="1.0" encoding="UTF-8" standalone="no"?>
<!-- Created with Inkscape (http://www.inkscape.org/) -->

<svg
   width="500"
   height="500"
   viewBox="0 0 132.29167 132.29167"
   version="1.1"
   id="svg8469"
   sodipodi:docname="Handshake_Stregasoft_Transparent.svg"
   inkscape:version="1.2.2 (732a01da63, 2022-12-09)"
   xmlns:inkscape="http://www.inkscape.org/namespaces/inkscape"
   xmlns:sodipodi="http://sodipodi.sourceforge.net/DTD/sodipodi-0.dtd"
   xmlns="http://www.w3.org/2000/svg"
   xmlns:svg="http://www.w3.org/2000/svg">
  <sodipodi:namedview
     id="namedview8471"
     pagecolor="#ffffff"
     bordercolor="#000000"
     borderopacity="0.25"
     inkscape:showpageshadow="2"
     inkscape:pageopacity="0.0"
     inkscape:pagecheckerboard="0"
     inkscape:deskcolor="#d1d1d1"
     inkscape:document-units="mm"
     showgrid="false"
     inkscape:zoom="1.0129245"
     inkscape:cx="99.21766"
     inkscape:cy="286.79334"
     inkscape:window-width="2400"
     inkscape:window-height="1261"
     inkscape:window-x="2391"
     inkscape:window-y="-9"
     inkscape:window-maximized="1"
     inkscape:current-layer="layer1" />
  <defs
     id="defs8466" />
  <g
     inkscape:label="Layer 1"
     inkscape:groupmode="layer"
     id="layer1">
    <g
       id="g202"
       transform="matrix(0.6953899,0,0,0.69539356,-161.4904,-159.65054)">
				<path
   style="fill:#f29e58"
   d="m 324.52,304.238 c 4.116,0.631 5.975,3.886 8.64,6.698 2.991,3.152 5.622,6.492 8.778,9.579 2.472,2.421 2.957,5.111 -0.872,5.77 -2.955,0.512 -6.13,-2.608 -8.29,-4.372 -2.607,-2.132 -5.716,-6.115 -8.953,-7.468 -3.218,-1.348 -7.38,0.939 -10.508,1.454 -4.614,0.746 -11.496,1.64 -13.324,-1.939 -2.303,-4.497 1.503,-8.303 2.343,-8.877 3.438,-2.362 18.801,-1.349 22.186,-0.845 z"
   id="path198" />

				<path
   style="opacity:0.54;fill:#fbdac6"
   d="m 341.938,320.516 c -0.52,-0.508 -0.966,-1.042 -1.458,-1.56 -0.162,0.169 -0.374,0.3 -0.483,0.512 -0.89,1.686 0.293,4.007 2.646,5.186 0.272,0.137 0.542,0.247 0.818,0.336 0.028,0 0.049,-0.009 0.08,-0.009 0.759,-1.172 0.022,-2.868 -1.603,-4.465 z"
   id="path200" />

			</g>
    <path
       style="fill:#f9ba84;stroke-width:0.695392"
       d="M 66.865212,60.04932 46.619631,73.307693 c -2.011763,1.302473 -2.845536,3.575714 -1.871294,5.086109 0.977718,1.513872 3.399761,1.682157 5.412915,0.376903 l 14.083731,-9.129822 c 0.103613,0.226698 0.235737,0.464523 0.350477,0.682877 L 47.253131,81.559929 c -2.007591,1.303167 -2.846926,3.579886 -1.867817,5.086108 0.977718,1.51874 3.39837,1.683548 5.410133,0.378294 L 67.827632,75.989826 c 0.03477,0.0612 0.05911,0.102919 0.09457,0.161332 0.08136,0.118912 0.156463,0.221135 0.232956,0.34561 L 52.399712,86.702364 c -2.008286,1.2983 -2.846927,3.577105 -1.868513,5.084718 0.975632,1.513176 3.399066,1.677985 5.406656,0.382466 l 16.005094,-10.36345 c 0.09596,0.124476 0.202359,0.259382 0.299018,0.384553 L 60.44885,89.827463 c -1.259351,0.821955 -1.487439,2.696041 -0.509026,4.203654 0.974937,1.520826 2.794077,2.07575 4.054819,1.264921 L 85.845184,81.300547 c 0.07858,-0.0452 5.828063,-4.474162 5.896907,-4.528403 3.166805,-2.751672 4.86008,-5.211975 4.86008,-5.211975 1.253788,-1.783684 -0.02364,-4.545787 -3.969981,-11.074837 -3.686958,-6.088866 -4.723784,-8.112462 -6.739719,-8.257799 0,0 -2.071567,0.168285 -5.401789,0.260077 -6.94764,2.666139 -8.22229,3.686281 -13.62547,7.56171 z"
       id="path204" />
    <rect
       x="48.744232"
       y="85.848717"
       transform="matrix(0.86270584,-0.50570608,0.50570212,0.86270816,0,0)"
       style="fill:#0073ff;stroke-width:0.695386;fill-opacity:1"
       width="3.8093202"
       height="27.23344"
       id="rect206" />
    <rect
       x="51.685822"
       y="85.104385"
       transform="matrix(0.86252374,-0.5060166,0.50601263,0.86252607,0,0)"
       style="fill:#868686;fill-opacity:1;stroke-width:0.695372"
       width="21.028706"
       height="30.156918"
       id="rect208" />
    <path
       style="fill:#ef9033;fill-opacity:1;stroke-width:0.695392"
       d="m 65.231046,58.92765 20.886036,12.220151 c 2.074348,1.200249 3.018687,3.431072 2.125111,4.987363 -0.905397,1.561854 -3.311446,1.854614 -5.387881,0.650193 l -14.524609,-8.41009 c -0.09805,0.230871 -0.21418,0.474258 -0.317097,0.700957 l 17.886123,10.348847 c 2.071567,1.198163 3.023556,3.430376 2.12233,4.98319 -0.901225,1.56394 -3.310056,1.856005 -5.385795,0.650888 L 65.071106,74.896668 c -0.03268,0.05911 -0.05841,0.10709 -0.08901,0.165503 -0.07023,0.124476 -0.141164,0.227394 -0.21418,0.357433 l 16.248481,9.399634 c 2.070871,1.196773 3.02286,3.426204 2.120939,4.9818 -0.897053,1.56394 -3.309361,1.851137 -5.380232,0.652279 L 61.254807,80.908345 c -0.09179,0.131429 -0.189146,0.270508 -0.281633,0.402633 l 12.162369,7.03182 c 1.296902,0.755892 1.620259,2.618156 0.716252,4.173056 -0.894967,1.568808 -2.682119,2.214829 -3.979717,1.467281 L 47.341445,81.104446 c -0.07719,-0.04451 -6.042938,-4.173752 -6.11804,-4.223821 -3.296843,-2.589645 -5.111116,-4.964414 -5.111116,-4.964414 -1.349056,-1.718318 -0.208617,-4.539529 3.405325,-11.261899 3.374032,-6.2648 4.30794,-8.332901 6.314835,-8.583243 0,0 2.07713,0.06119 5.408048,-0.009 7.074201,2.310793 8.399614,3.264873 13.990549,6.865621 z"
       id="path210" />
    <polygon
       style="fill:#0073ff;fill-opacity:1"
       points="280.465,335.147 298.55,300.413 293.688,297.879 275.607,332.622 "
       id="polygon212"
       transform="matrix(0.6953899,0,0,0.69539356,-161.4904,-159.65054)" />
    <rect
       x="-51.754639"
       y="39.637886"
       transform="matrix(0.46198986,-0.88688521,0.88688321,0.46199369,0,0)"
       style="fill:#524f4f;fill-opacity:1;stroke-width:0.695406"
       width="30.158329"
       height="21.028294"
       id="rect214" />
    <path
       style="opacity:0.54;fill:#fbdac6;stroke-width:0.695392"
       d="m 87.807575,81.664238 c 0.380378,0.854638 0.403326,1.782293 -0.04033,2.561134 -0.480514,0.852553 -1.40886,1.292737 -2.444296,1.326811 -0.186364,-0.0605 -0.367165,-0.140469 -0.557702,-0.234347 -1.593139,-0.818479 -2.397705,-2.431096 -1.79202,-3.607007 0.60638,-1.172433 2.384492,-1.460326 3.978326,-0.643239 0.32266,0.169676 0.602903,0.370645 0.856025,0.596648 z"
       id="path216" />
    <path
       style="opacity:0.54;fill:#fbdac6;stroke-width:0.695392"
       d="m 88.021059,73.453031 c 0.380379,0.865069 0.403326,1.78577 -0.03894,2.565306 -0.479123,0.848381 -1.411641,1.300386 -2.445686,1.327507 -0.188451,-0.06189 -0.369252,-0.133516 -0.55353,-0.232262 -1.597311,-0.815001 -2.397009,-2.433877 -1.792715,-3.606311 0.601512,-1.175215 2.383796,-1.460326 3.976239,-0.648802 0.317793,0.168285 0.605685,0.38038 0.854634,0.594562 z"
       id="path218" />
    <path
       style="opacity:0.54;fill:#fbdac6;stroke-width:0.695392"
       d="m 82.928024,87.002774 c 0.376901,0.855334 0.401935,1.787162 -0.04381,2.559744 -0.477733,0.851857 -1.40886,1.301081 -2.442905,1.326811 -0.190537,-0.06119 -0.368556,-0.136993 -0.555616,-0.232957 -1.596615,-0.819869 -2.397009,-2.429705 -1.794802,-3.60492 0.603599,-1.171738 2.385188,-1.463108 3.976935,-0.636981 0.323357,0.161332 0.603599,0.365777 0.860198,0.588303 z"
       id="path220" />
    <path
       style="opacity:0.54;fill:#fbdac6;stroke-width:0.695392"
       d="m 73.752354,89.800342 c 0.376901,0.86507 0.399154,1.78438 -0.0452,2.56183 -0.479124,0.842122 -1.408165,1.296909 -2.440819,1.332374 -0.186365,-0.06815 -0.372729,-0.143946 -0.554921,-0.235738 -1.593138,-0.82126 -2.397009,-2.433877 -1.798974,-3.609093 0.604294,-1.170347 2.386578,-1.461717 3.979021,-0.644629 0.323356,0.161331 0.607076,0.374121 0.860893,0.595256 z"
       id="path222" />
    <path
       style="fill:#f4b888;stroke-width:0.695392"
       d="m 69.139833,51.638535 c -3.027728,0.761456 -4.408077,3.264872 -6.381593,5.49639 -2.209254,2.505503 -4.15565,5.112534 -6.488684,7.580486 -1.826789,1.942234 -2.193955,3.917847 0.620288,4.10004 2.171703,0.143946 4.517253,-2.349735 6.110391,-3.782246 1.930403,-1.743351 4.230752,-4.855237 6.61594,-6.076349 2.369889,-1.221111 5.42265,0.116827 7.721609,0.247561 3.391417,0.188451 8.445511,0.308754 9.804998,-2.41093 1.712745,-3.421336 -1.072291,-5.88442 -1.689102,-6.232812 -2.521484,-1.441551 -13.825742,0.458959 -16.313847,1.07786 z"
       id="path224" />
    <path
       style="opacity:0.22;fill:#f4b888;stroke-width:0.695392"
       d="m 84.765939,53.684383 c 0.489555,1.031268 0.718338,2.323309 0.05424,3.763469 -1.169646,2.545836 -6.083967,2.159197 -9.386373,1.797593 -2.240547,-0.244779 -5.282877,-1.696065 -7.51647,-0.648107 -2.244718,1.051435 -4.306549,3.921324 -6.082575,5.492218 -1.463796,1.296909 -3.609074,3.571542 -5.722364,3.318418 -0.554921,-0.06954 -0.95477,-0.213485 -1.278126,-0.38942 -0.0083,0.812915 0.582041,1.445723 2.055572,1.616095 2.116767,0.258686 4.257873,-2.013165 5.721668,-3.310769 1.776026,-1.57298 3.839943,-4.44426 6.083967,-5.494305 2.233592,-1.049348 5.275227,0.401242 7.516469,0.650193 3.302407,0.362996 8.218118,0.746853 9.384982,-1.800374 0.970069,-2.107042 0.07162,-3.89629 -0.830991,-4.995011 z"
       id="path226" />
    <path
       style="opacity:0.35;fill:#fbdac6;stroke-width:0.695392"
       d="m 57.974652,65.033901 c 0,-0.568832 -0.237823,-1.098722 -0.632109,-1.548642 -0.360212,0.408196 -0.692608,0.827519 -1.072291,1.230152 -1.09663,1.165479 -1.648074,2.33374 -1.321936,3.129966 1.735693,-0.324749 3.026336,-1.451286 3.026336,-2.811476 z"
       id="path228" />
  </g>
</svg>
