<?xml version="1.0" encoding="UTF-8" standalone="no"?>
<svg
   id="Outline"
   viewBox="0 0 24 24"
   width="512"
   height="512"
   version="1.1"
   sodipodi:docname="settings-sliders.svg"
   inkscape:version="1.2.2 (732a01da63, 2022-12-09)"
   xmlns:inkscape="http://www.inkscape.org/namespaces/inkscape"
   xmlns:sodipodi="http://sodipodi.sourceforge.net/DTD/sodipodi-0.dtd"
   xmlns="http://www.w3.org/2000/svg"
   xmlns:svg="http://www.w3.org/2000/svg">
  <defs
     id="defs4009" />
  <sodipodi:namedview
     id="namedview4007"
     pagecolor="#ffffff"
     bordercolor="#000000"
     borderopacity="0.25"
     inkscape:showpageshadow="2"
     inkscape:pageopacity="0.0"
     inkscape:pagecheckerboard="0"
     inkscape:deskcolor="#d1d1d1"
     showgrid="false"
     inkscape:zoom="2.0410156"
     inkscape:cx="236.15694"
     inkscape:cy="256"
     inkscape:window-width="2400"
     inkscape:window-height="1261"
     inkscape:window-x="2391"
     inkscape:window-y="-9"
     inkscape:window-maximized="1"
     inkscape:current-layer="Outline" />
  <path
     d="M1,4.75H3.736a3.728,3.728,0,0,0,7.195,0H23a1,1,0,0,0,0-2H10.931a3.728,3.728,0,0,0-7.195,0H1a1,1,0,0,0,0,2ZM7.333,2a1.75,1.75,0,1,1-1.75,1.75A1.752,1.752,0,0,1,7.333,2Z"
     id="path4000"
     style="fill:#1D4999;fill-opacity:1" />
  <path
     d="M23,11H20.264a3.727,3.727,0,0,0-7.194,0H1a1,1,0,0,0,0,2H13.07a3.727,3.727,0,0,0,7.194,0H23a1,1,0,0,0,0-2Zm-6.333,2.75A1.75,1.75,0,1,1,18.417,12,1.752,1.752,0,0,1,16.667,13.75Z"
     id="path4002"
     style="fill:#1D4999;fill-opacity:1" />
  <path
     d="M23,19.25H10.931a3.728,3.728,0,0,0-7.195,0H1a1,1,0,0,0,0,2H3.736a3.728,3.728,0,0,0,7.195,0H23a1,1,0,0,0,0-2ZM7.333,22a1.75,1.75,0,1,1,1.75-1.75A1.753,1.753,0,0,1,7.333,22Z"
     id="path4004"
     style="fill:#1D4999;fill-opacity:1" />
</svg>
